<?xml version="1.0" encoding="UTF-8" standalone="no"?><!DOCTYPE svg PUBLIC "-//W3C//DTD SVG 1.1//EN" "http://www.w3.org/Graphics/SVG/1.1/DTD/svg11.dtd"><svg width="100%" height="100%" viewBox="0 0 94 63" version="1.1" xmlns="http://www.w3.org/2000/svg" xmlns:xlink="http://www.w3.org/1999/xlink" xml:space="preserve" xmlns:serif="http://www.serif.com/" style="fill-rule:evenodd;clip-rule:evenodd;stroke-linejoin:round;stroke-miterlimit:2;"><g><path d="M10.191,19.844l0.161,0.014l0.161,0.024l0.159,0.032l0.157,0.043l0.154,0.051l0.151,0.06l0.148,0.069l0.003,0.001l0.131,0.071l0.127,0.077l0.123,0.084l0.118,0.091l0.113,0.096l0.004,0.004l0.12,0.114l0.112,0.121l0.066,0.076l0.098,0.128l0.065,0.092l0.054,0.083l0.058,0.095l0.052,0.09l0.047,0.084l0.044,0.082l0.046,0.086l0.047,0.091l0.05,0.097l0.053,0.105l0.057,0.112l0.061,0.123l0.133,0.268l0.15,0.309l0.169,0.349l0.189,0.391l0.206,0.432l0.07,0.157l0.059,0.161l0.05,0.164l0.039,0.167l0.029,0.17l0.018,0.17l0.007,0.145l0.008,0.019l0.168,0.382l0.175,0.395l0.18,0.407l0.184,0.417l0.19,0.426l0.193,0.434l0.197,0.441l0.199,0.446l0.407,0.906l0.205,0.456l0.206,0.457l0.207,0.457l0.206,0.456l0.205,0.453l0.205,0.45l0.203,0.445l0.2,0.438l0.198,0.432l0.194,0.423l0.19,0.414l0.186,0.403l0.182,0.391l0.175,0.378l0.17,0.364l0.163,0.348l0.156,0.331l0.149,0.313l0.14,0.294l0.131,0.273l0.121,0.25l0.111,0.226l0.101,0.202l0.044,0.088l0.041,0.081l0.038,0.074l0.034,0.065l0.029,0.055l0.032,0.058l0.027,0.052l0.034,0.064l0.032,0.064l0.034,0.067l0.057,0.119l0.059,0.126l0.058,0.129l0.058,0.131l0.059,0.135l0.059,0.14l0.06,0.143l0.061,0.147l0.062,0.152l0.064,0.157l0.13,0.322l0.135,0.339l0.139,0.352l0.143,0.363l0.148,0.372l0.15,0.379l0.153,0.385l0.156,0.388l0.078,0.193l0.079,0.193l0.079,0.193l0.079,0.192l0.079,0.191l0.08,0.189l0.079,0.188l0.079,0.185l0.079,0.183l0.079,0.179l0.078,0.177l0.078,0.173l0.077,0.169l0.076,0.164l0.075,0.16l0.075,0.157l0.036,0.073l0.036,0.074l0.036,0.072l0.035,0.07l0.035,0.069l0.034,0.067l0.034,0.066l0.034,0.063l0.033,0.062l0.032,0.059l0.031,0.058l0.031,0.055l0.03,0.053l0.029,0.051l0.029,0.048l0.021,0.035l0.097,0.052l0.145,0.088l0.139,0.097l0.132,0.104l0.126,0.113l0.12,0.12l0.111,0.127l0.104,0.134l0.095,0.14l0.087,0.145l0.078,0.15l0.068,0.155l0.059,0.158l0.049,0.162l0.04,0.164l0.029,0.167l0.019,0.168l0.009,0.169l-0.001,0.169l-0.012,0.169l-0.022,0.167l-0.031,0.167l-0.042,0.163l-0.052,0.161l-0.062,0.158l-0.071,0.153l-0.08,0.149l-0.089,0.144l-0.097,0.138l-0.106,0.132l-0.113,0.126l-0.121,0.118l-0.128,0.111l-0.135,0.102l-0.14,0.095l-0.146,0.086l-0.151,0.076l-0.155,0.068l-0.159,0.058l-0.162,0.048l-0.164,0.038l-0.167,0.028l0.003,0l-0.03,0.004l-0.17,0.02l-0.172,0.009l-0.171,-0.002l-0.031,-0.002l-0.06,-0.001l-0.13,-0.009l-0.105,-0.01l-0.1,-0.013l-0.105,-0.018l-0.121,-0.024l-0.144,-0.035l-0.158,-0.048l-0.181,-0.067l-0.171,-0.077l-0.113,-0.058l-0.083,-0.046l-0.079,-0.047l-0.073,-0.045l-0.069,-0.045l-0.067,-0.047l-0.064,-0.046l-0.06,-0.045l-0.059,-0.046l-0.065,-0.053l-0.095,-0.082l-0.097,-0.088l-0.091,-0.088l-0.084,-0.086l-0.08,-0.086l-0.076,-0.086l-0.071,-0.083l-0.069,-0.084l-0.066,-0.083l-0.063,-0.083l-0.061,-0.082l-0.059,-0.083l-0.058,-0.082l-0.057,-0.084l-0.054,-0.082l-0.054,-0.083l-0.054,-0.084l-0.052,-0.085l-0.051,-0.084l-0.051,-0.085l-0.05,-0.086l-0.05,-0.086l-0.049,-0.087l-0.049,-0.088l-0.048,-0.088l-0.049,-0.089l-0.047,-0.089l-0.048,-0.091l-0.047,-0.09l-0.047,-0.092l-0.047,-0.092l-0.046,-0.093l-0.047,-0.093l-0.046,-0.094l-0.047,-0.097l-0.09,-0.189l-0.092,-0.194l-0.09,-0.196l-0.09,-0.197l-0.09,-0.2l-0.089,-0.201l-0.088,-0.202l-0.088,-0.204l-0.088,-0.204l-0.086,-0.205l-0.087,-0.206l-0.085,-0.206l-0.085,-0.205l-0.084,-0.206l-0.084,-0.204l-0.082,-0.205l-0.162,-0.402l-0.158,-0.397l-0.153,-0.387l-0.149,-0.375l-0.142,-0.361l-0.137,-0.345l-0.129,-0.324l-0.122,-0.303l-0.057,-0.14l-0.055,-0.134l-0.052,-0.127l-0.05,-0.119l-0.047,-0.109l-0.043,-0.1l-0.04,-0.09l-0.035,-0.079l-0.031,-0.065l-0.027,-0.056l-0.007,-0.015l-0.007,-0.013l-0.005,-0.01l-0.009,-0.017l-0.04,-0.074l-0.048,-0.09l-0.049,-0.094l-0.051,-0.099l-0.052,-0.103l-0.055,-0.11l-0.114,-0.228l-0.122,-0.25l-0.131,-0.27l-0.139,-0.289l-0.147,-0.308l-0.154,-0.325l-0.161,-0.341l-0.168,-0.358l-0.173,-0.371l-0.179,-0.386l-0.185,-0.398l-0.189,-0.409l-0.193,-0.419l-0.196,-0.429l-0.2,-0.436l-0.203,-0.444l-0.204,-0.449l-0.207,-0.454l-0.207,-0.457l-0.208,-0.46l-0.209,-0.461l-0.207,-0.461l-0.208,-0.46l-0.409,-0.912l-0.201,-0.451l-0.199,-0.445l-0.195,-0.438l-0.191,-0.43l-0.187,-0.422l-0.182,-0.411l-0.177,-0.4l-0.17,-0.388l-0.164,-0.375l-0.158,-0.36l-0.15,-0.345l-0.142,-0.328l-0.134,-0.311l-0.126,-0.292l-0.116,-0.273l-0.107,-0.252l-0.097,-0.233l-0.087,-0.211l-0.077,-0.189l-0.036,-0.091l-0.033,-0.085l-0.032,-0.082l-0.03,-0.081l-0.03,-0.083l-0.032,-0.091l-0.036,-0.111l-0.039,-0.138l-0.032,-0.142l-0.035,-0.19l-0.011,-0.121l-0.01,-0.144l-0.003,-0.144l0.005,-0.145l0,-0.004l0.013,-0.146l0.02,-0.144l0.028,-0.144l0.035,-0.141l0.042,-0.14l0.001,-0.001l0.054,-0.15l0.063,-0.145l0.071,-0.142l0.079,-0.138l0.087,-0.133l0.001,-0.001l0.1,-0.135l0.108,-0.13l0.116,-0.122l0.123,-0.115l0.129,-0.107l0.136,-0.1l0.142,-0.091l0.147,-0.082l0.001,-0.001l0.15,-0.073l0.155,-0.064l0.159,-0.054l0.161,-0.045l0.164,-0.035l0.166,-0.025l0.167,-0.015l0.167,-0.005l0.001,0l0.163,0.005Zm12.171,26.608l-0.035,0.002l-0.033,0.003l-0.009,0l0.096,-0.005l-0.019,0Z" style="fill:#ff0002;"/><path d="M22.324,16.984l0.092,0.001l0.094,0.003l0.092,0.005l0.092,0.006l0.094,0.008l0.095,0.01l0.095,0.011l0.094,0.013l0.095,0.015l0.095,0.017l0.096,0.019l0.096,0.021l0.094,0.022l0.096,0.025l0.097,0.026l0.095,0.029l0.09,0.029l0.072,0.025l0.066,0.023l0.066,0.024l0.064,0.025l0.065,0.025l0.065,0.027l0.063,0.027l0.062,0.027l0.064,0.028l0.062,0.029l0.06,0.029l0.062,0.03l0.061,0.031l0.058,0.03l0.06,0.032l0.06,0.032l0.057,0.032l0.059,0.033l0.057,0.034l0.055,0.033l0.057,0.035l0.062,0.038l0.105,0.067l0.108,0.073l0.106,0.074l0.106,0.076l0.102,0.076l0.101,0.078l0.101,0.08l0.098,0.082l0.097,0.081l0.095,0.084l0.094,0.084l0.093,0.086l0.091,0.087l0.09,0.087l0.09,0.09l0.087,0.089l0.087,0.091l0.086,0.092l0.085,0.093l0.084,0.094l0.083,0.094l0.082,0.095l0.081,0.097l0.081,0.098l0.079,0.098l0.079,0.099l0.078,0.1l0.078,0.101l0.077,0.102l0.076,0.102l0.075,0.104l0.076,0.104l0.074,0.105l0.074,0.106l0.073,0.107l0.073,0.107l0.072,0.108l0.072,0.11l0.071,0.109l0.071,0.111l0.07,0.111l0.07,0.112l0.07,0.113l0.069,0.114l0.069,0.114l0.068,0.115l0.068,0.116l0.068,0.116l0.067,0.117l0.067,0.118l0.066,0.118l0.067,0.12l0.066,0.119l0.065,0.121l0.066,0.121l0.065,0.121l0.064,0.122l0.065,0.123l0.064,0.124l0.064,0.124l0.064,0.125l0.063,0.125l0.063,0.125l0.063,0.126l0.063,0.127l0.062,0.128l0.062,0.128l0.062,0.128l0.062,0.129l0.061,0.129l0.062,0.131l0.121,0.259l0.121,0.263l0.12,0.263l0.119,0.266l0.118,0.267l0.118,0.268l0.117,0.269l0.116,0.271l0.115,0.271l0.115,0.272l0.113,0.273l0.113,0.274l0.113,0.274l0.112,0.274l0.111,0.275l0.11,0.275l0.109,0.275l0.109,0.275l0.109,0.275l0.107,0.275l0.107,0.274l0.106,0.274l0.106,0.274l0.209,0.543l0.207,0.54l0.204,0.536l0.202,0.529l0.198,0.523l0.197,0.514l0.193,0.506l0.192,0.497l0.094,0.243l0.093,0.241l0.093,0.238l0.093,0.234l0.091,0.232l0.091,0.227l0.09,0.225l0.089,0.22l0.088,0.217l0.088,0.212l0.087,0.208l0.085,0.204l0.085,0.199l0.084,0.195l0.083,0.189l0.082,0.184l0.081,0.179l0.08,0.174l0.079,0.17l0.038,0.08l0.038,0.08l0.038,0.078l0.038,0.077l0.037,0.076l0.037,0.074l0.036,0.072l0.036,0.071l0.036,0.068l0.035,0.067l0.035,0.065l0.034,0.063l0.033,0.061l0.033,0.06l0.032,0.057l0.032,0.056l0.032,0.053l0.03,0.051l0.029,0.05l0.029,0.046l0.028,0.045l0.027,0.042l0.026,0.04l0.025,0.038l0.024,0.035l0.003,0.004l0.096,0.04l0.146,0.071l0.142,0.079l0.137,0.087l0.131,0.095l0.126,0.103l0.119,0.109l0.113,0.117l0.106,0.122l0.099,0.129l0.091,0.134l0.083,0.139l0.075,0.144l0.066,0.148l0.058,0.152l0.049,0.154l0.04,0.157l0.03,0.16l0.021,0.16l0.012,0.162l0.002,0.162l-0.007,0.162l-0.016,0.162l-0.026,0.16l-0.035,0.158l-0.045,0.156l-0.053,0.153l-0.062,0.15l-0.071,0.146l-0.079,0.141l-0.087,0.137l-0.095,0.132l-0.102,0.125l-0.11,0.12l-0.116,0.113l-0.123,0.106l-0.128,0.099l-0.134,0.091l-0.14,0.083l-0.144,0.075l-0.148,0.066l-0.151,0.058l-0.155,0.048l-0.157,0.04l-0.159,0.03l-0.161,0.022l-0.162,0.011l-0.162,0.003l-0.056,-0.001l-0.093,-0.004l-0.096,-0.007l-0.094,-0.009l-0.088,-0.011l-0.091,-0.013l-0.094,-0.017l-0.088,-0.018l-0.084,-0.02l-0.084,-0.021l-0.082,-0.024l-0.082,-0.025l-0.08,-0.027l-0.076,-0.027l-0.077,-0.03l-0.073,-0.03l-0.071,-0.031l-0.071,-0.032l-0.068,-0.033l-0.067,-0.035l-0.065,-0.035l-0.062,-0.034l-0.061,-0.035l-0.071,-0.044l-0.105,-0.067l-0.109,-0.075l-0.104,-0.076l-0.099,-0.077l-0.095,-0.077l-0.09,-0.079l-0.086,-0.078l-0.083,-0.078l-0.079,-0.079l-0.077,-0.08l-0.075,-0.079l-0.071,-0.08l-0.07,-0.08l-0.067,-0.079l-0.066,-0.081l-0.063,-0.081l-0.062,-0.08l-0.062,-0.083l-0.059,-0.081l-0.059,-0.082l-0.057,-0.083l-0.057,-0.083l-0.055,-0.084l-0.055,-0.084l-0.055,-0.085l-0.053,-0.086l-0.053,-0.086l-0.052,-0.087l-0.052,-0.088l-0.051,-0.088l-0.051,-0.088l-0.051,-0.09l-0.05,-0.09l-0.05,-0.092l-0.049,-0.092l-0.05,-0.092l-0.049,-0.094l-0.049,-0.095l-0.048,-0.094l-0.049,-0.096l-0.048,-0.096l-0.048,-0.098l-0.048,-0.098l-0.048,-0.099l-0.048,-0.1l-0.048,-0.103l-0.094,-0.202l-0.095,-0.206l-0.095,-0.21l-0.095,-0.213l-0.095,-0.217l-0.094,-0.219l-0.095,-0.222l-0.095,-0.225l-0.095,-0.228l-0.095,-0.231l-0.095,-0.233l-0.095,-0.236l-0.096,-0.238l-0.096,-0.241l-0.096,-0.243l-0.096,-0.245l-0.097,-0.247l-0.097,-0.249l-0.097,-0.252l-0.195,-0.507l-0.197,-0.514l-0.198,-0.52l-0.2,-0.524l-0.201,-0.528l-0.202,-0.53l-0.204,-0.533l-0.205,-0.534l-0.103,-0.266l-0.104,-0.267l-0.103,-0.266l-0.104,-0.266l-0.105,-0.265l-0.105,-0.265l-0.105,-0.264l-0.106,-0.263l-0.105,-0.262l-0.106,-0.261l-0.107,-0.259l-0.107,-0.258l-0.107,-0.257l-0.107,-0.255l-0.107,-0.253l-0.108,-0.251l-0.108,-0.25l-0.109,-0.247l-0.108,-0.244l-0.109,-0.242l-0.109,-0.24l-0.109,-0.236l-0.11,-0.236l-0.053,-0.114l-0.055,-0.115l-0.055,-0.114l-0.055,-0.114l-0.054,-0.112l-0.055,-0.111l-0.054,-0.111l-0.055,-0.11l-0.055,-0.109l-0.055,-0.109l-0.054,-0.106l-0.055,-0.106l-0.055,-0.105l-0.054,-0.104l-0.055,-0.104l-0.054,-0.102l-0.055,-0.101l-0.054,-0.1l-0.055,-0.098l-0.054,-0.098l-0.054,-0.096l-0.054,-0.096l-0.054,-0.094l-0.054,-0.093l-0.054,-0.091l-0.054,-0.091l-0.054,-0.089l-0.053,-0.087l-0.053,-0.087l-0.054,-0.085l-0.052,-0.084l-0.053,-0.082l-0.053,-0.081l-0.052,-0.08l-0.052,-0.078l-0.052,-0.077l-0.052,-0.075l-0.051,-0.073l-0.051,-0.072l-0.051,-0.071l-0.05,-0.068l-0.05,-0.068l-0.05,-0.066l-0.049,-0.063l-0.048,-0.063l-0.048,-0.06l-0.049,-0.06l-0.047,-0.056l-0.046,-0.055l-0.046,-0.054l-0.046,-0.052l-0.044,-0.05l-0.045,-0.049l-0.042,-0.045l-0.043,-0.045l-0.042,-0.043l-0.041,-0.04l-0.04,-0.04l-0.039,-0.036l-0.038,-0.035l-0.037,-0.034l-0.035,-0.031l-0.035,-0.029l-0.033,-0.028l-0.032,-0.025l-0.031,-0.024l-0.03,-0.022l-0.027,-0.02l-0.027,-0.018l-0.025,-0.017l-0.029,-0.019l-0.005,-0.003l-0.01,-0.006l-0.011,-0.007l-0.01,-0.005l-0.008,-0.005l-0.01,-0.006l-0.008,-0.004l-0.007,-0.004l-0.002,-0.001l-0.003,0.001l-0.01,0.001l-0.013,0.002l-0.012,0.002l-0.014,0.002l-0.014,0.003l-0.015,0.003l-0.017,0.004l-0.017,0.003l-0.018,0.005l-0.019,0.005l-0.02,0.005l-0.02,0.005l-0.021,0.007l-0.023,0.006l-0.023,0.007l-0.023,0.008l-0.025,0.008l-0.025,0.009l-0.026,0.009l-0.026,0.01l-0.027,0.01l-0.028,0.011l-0.03,0.012l-0.028,0.012l-0.029,0.012l-0.03,0.013l-0.032,0.014l-0.031,0.014l-0.031,0.015l-0.034,0.015l-0.032,0.016l-0.033,0.016l-0.035,0.018l-0.033,0.017l-0.036,0.018l-0.035,0.019l-0.034,0.019l-0.037,0.02l-0.037,0.02l-0.036,0.021l-0.037,0.021l-0.037,0.022l-0.038,0.023l-0.038,0.023l-0.039,0.024l-0.038,0.023l-0.039,0.025l-0.039,0.025l-0.04,0.026l-0.04,0.026l-0.039,0.027l-0.04,0.027l-0.041,0.027l-0.041,0.029l-0.04,0.028l-0.038,0.027l-0.086,0.062l-0.083,0.061l-0.083,0.064l-0.085,0.065l-0.084,0.066l-0.085,0.069l-0.085,0.07l-0.085,0.072l-0.086,0.073l-0.085,0.074l-0.086,0.077l-0.085,0.077l-0.086,0.079l-0.085,0.081l-0.085,0.081l-0.085,0.083l-0.084,0.084l-0.085,0.085l-0.083,0.086l-0.083,0.087l-0.083,0.088l-0.083,0.089l-0.081,0.09l-0.081,0.09l-0.08,0.091l-0.08,0.093l-0.079,0.093l-0.077,0.093l-0.077,0.094l-0.077,0.094l-0.075,0.095l-0.074,0.095l-0.073,0.096l-0.072,0.096l-0.071,0.096l-0.069,0.096l-0.069,0.096l-0.067,0.097l-0.066,0.096l-0.064,0.096l-0.063,0.096l-0.062,0.096l-0.06,0.096l-0.059,0.095l-0.057,0.095l-0.056,0.095l-0.054,0.094l-0.052,0.093l-0.051,0.092l-0.049,0.092l-0.049,0.095l-0.021,0.041l-0.023,0.046l-0.022,0.044l-0.021,0.044l-0.021,0.044l-0.021,0.045l-0.02,0.043l-0.02,0.042l-0.019,0.044l-0.019,0.042l-0.018,0.042l-0.018,0.042l-0.018,0.042l-0.017,0.041l-0.016,0.04l-0.016,0.041l-0.016,0.04l-0.015,0.04l-0.014,0.039l-0.014,0.038l-0.014,0.038l-0.013,0.038l-0.012,0.036l-0.013,0.037l-0.012,0.037l-0.01,0.035l-0.011,0.035l-0.01,0.035l-0.01,0.033l-0.009,0.033l-0.009,0.033l-0.008,0.032l-0.008,0.031l-0.008,0.032l-0.006,0.03l-0.007,0.028l-0.006,0.029l-0.005,0.028l-0.006,0.028l-0.004,0.026l-0.005,0.025l-0.004,0.025l-0.003,0.024l-0.003,0.023l-0.003,0.023l-0.003,0.021l-0.002,0.021l-0.002,0.02l-0.001,0.018l-0.001,0.019l-0.001,0.017l-0.001,0.015l0,0.015l-0.001,0.015l0,0.014l0,0.012l0.001,0.011l0,0.01l0,0.01l0.001,0.008l0.001,0.007l0,0.007l0.001,0.01l0.002,0.008l0.005,0.02l0.036,0.158l0.028,0.16l0.018,0.161l0.008,0.162l0,0.162l-0.011,0.162l-0.019,0.161l-0.029,0.159l-0.039,0.158l-0.047,0.155l-0.056,0.152l-0.065,0.148l-0.074,0.145l-0.081,0.14l-0.09,0.135l-0.098,0.13l-0.104,0.123l-0.112,0.118l-0.119,0.11l-0.125,0.104l-0.13,0.096l-0.136,0.088l-0.141,0.081l-0.145,0.072l-0.149,0.063l-0.153,0.055l-0.156,0.046l-0.158,0.036l-0.159,0.028l-0.162,0.018l-0.161,0.008l-0.163,-0.001l-0.161,-0.01l-0.161,-0.019l-0.16,-0.029l-0.158,-0.039l-0.155,-0.047l-0.152,-0.056l-0.148,-0.065l-0.145,-0.074l-0.14,-0.081l-0.135,-0.09l-0.129,-0.098l-0.124,-0.105l-0.117,-0.111l-0.111,-0.119l-0.104,-0.125l-0.096,-0.13l-0.088,-0.136l-0.081,-0.141l-0.072,-0.145l-0.063,-0.15l-0.055,-0.152l-0.045,-0.156l-0.018,-0.066l-0.022,-0.091l-0.021,-0.093l-0.019,-0.091l-0.018,-0.091l-0.016,-0.092l-0.014,-0.09l-0.013,-0.09l-0.011,-0.091l-0.01,-0.09l-0.008,-0.089l-0.008,-0.089l-0.005,-0.09l-0.005,-0.088l-0.003,-0.088l-0.002,-0.088l-0.001,-0.088l0.001,-0.087l0.001,-0.086l0.003,-0.086l0.003,-0.087l0.005,-0.085l0.006,-0.085l0.007,-0.086l0.007,-0.084l0.009,-0.083l0.01,-0.085l0.01,-0.083l0.011,-0.083l0.013,-0.083l0.013,-0.082l0.014,-0.083l0.014,-0.082l0.016,-0.081l0.016,-0.081l0.017,-0.081l0.018,-0.081l0.019,-0.08l0.019,-0.08l0.02,-0.08l0.02,-0.079l0.021,-0.079l0.022,-0.079l0.023,-0.079l0.023,-0.078l0.024,-0.078l0.024,-0.079l0.025,-0.077l0.026,-0.077l0.026,-0.078l0.027,-0.077l0.027,-0.077l0.028,-0.077l0.029,-0.077l0.029,-0.075l0.029,-0.076l0.03,-0.076l0.031,-0.076l0.031,-0.075l0.031,-0.075l0.033,-0.075l0.032,-0.076l0.033,-0.074l0.034,-0.074l0.034,-0.075l0.035,-0.075l0.035,-0.074l0.035,-0.074l0.036,-0.073l0.037,-0.074l0.037,-0.073l0.039,-0.077l0.074,-0.143l0.077,-0.145l0.08,-0.145l0.081,-0.145l0.082,-0.143l0.085,-0.143l0.085,-0.142l0.088,-0.142l0.088,-0.141l0.091,-0.141l0.091,-0.139l0.094,-0.14l0.094,-0.138l0.096,-0.137l0.097,-0.137l0.099,-0.137l0.1,-0.135l0.101,-0.135l0.102,-0.134l0.104,-0.133l0.104,-0.132l0.106,-0.131l0.107,-0.131l0.109,-0.13l0.109,-0.128l0.11,-0.128l0.111,-0.127l0.113,-0.126l0.113,-0.125l0.115,-0.124l0.115,-0.122l0.117,-0.122l0.117,-0.121l0.118,-0.119l0.12,-0.119l0.12,-0.117l0.121,-0.116l0.122,-0.114l0.122,-0.114l0.124,-0.112l0.124,-0.111l0.126,-0.109l0.126,-0.108l0.127,-0.107l0.128,-0.105l0.128,-0.104l0.13,-0.103l0.13,-0.1l0.131,-0.099l0.132,-0.098l0.13,-0.094l0.07,-0.049l0.067,-0.047l0.067,-0.047l0.067,-0.046l0.068,-0.045l0.068,-0.046l0.068,-0.045l0.068,-0.044l0.068,-0.044l0.069,-0.043l0.069,-0.043l0.07,-0.043l0.068,-0.042l0.071,-0.042l0.069,-0.041l0.071,-0.04l0.071,-0.041l0.07,-0.039l0.07,-0.039l0.073,-0.039l0.071,-0.038l0.072,-0.037l0.072,-0.037l0.072,-0.036l0.073,-0.036l0.073,-0.036l0.073,-0.034l0.074,-0.035l0.075,-0.033l0.073,-0.033l0.075,-0.032l0.076,-0.032l0.076,-0.031l0.075,-0.03l0.076,-0.03l0.077,-0.03l0.077,-0.028l0.078,-0.028l0.077,-0.027l0.078,-0.026l0.079,-0.025l0.08,-0.025l0.079,-0.024l0.081,-0.023l0.08,-0.023l0.082,-0.021l0.081,-0.021l0.082,-0.019l0.083,-0.019l0.083,-0.018l0.083,-0.017l0.085,-0.016l0.085,-0.015l0.085,-0.014l0.085,-0.012l0.087,-0.012l0.087,-0.01l0.088,-0.01l0.089,-0.008l0.088,-0.006l0.088,-0.006l0.09,-0.004l0.091,-0.003l0.092,-0.001l0.09,0Zm14.199,24.115l-0.027,-0.002l-0.057,-0.002l-0.02,-0.001l0.104,0.005Z" style="fill:#ff0002;"/></g><path d="M43.871,20.774l0.096,0.003l0.096,0.004l0.095,0.005l0.095,0.006l0.095,0.008l0.094,0.008l0.093,0.011l0.094,0.011l0.093,0.012l0.092,0.014l0.092,0.014l0.092,0.016l0.091,0.017l0.091,0.017l0.09,0.019l0.09,0.02l0.09,0.02l0.089,0.022l0.09,0.022l0.089,0.023l0.088,0.025l0.088,0.025l0.088,0.025l0.088,0.027l0.087,0.027l0.087,0.029l0.087,0.029l0.087,0.029l0.086,0.031l0.086,0.031l0.087,0.033l0.084,0.032l0.086,0.033l0.086,0.035l0.085,0.035l0.085,0.035l0.085,0.036l0.084,0.037l0.084,0.037l0.085,0.039l0.084,0.039l0.084,0.039l0.083,0.04l0.084,0.041l0.083,0.041l0.084,0.042l0.083,0.043l0.083,0.043l0.083,0.044l0.082,0.044l0.083,0.045l0.082,0.046l0.083,0.046l0.082,0.046l0.082,0.047l0.082,0.048l0.082,0.048l0.081,0.049l0.082,0.05l0.082,0.05l0.081,0.05l0.081,0.051l0.081,0.052l0.081,0.052l0.081,0.053l0.08,0.053l0.081,0.053l0.08,0.055l0.08,0.054l0.08,0.055l0.081,0.056l0.079,0.056l0.08,0.057l0.079,0.057l0.08,0.057l0.079,0.058l0.079,0.059l0.079,0.059l0.079,0.06l0.078,0.059l0.079,0.061l0.078,0.061l0.078,0.061l0.078,0.062l0.078,0.062l0.078,0.063l0.077,0.063l0.077,0.063l0.078,0.064l0.077,0.065l0.077,0.064l0.076,0.065l0.076,0.066l0.076,0.066l0.076,0.067l0.076,0.066l0.075,0.068l0.076,0.067l0.075,0.068l0.075,0.069l0.075,0.069l0.074,0.069l0.074,0.069l0.074,0.07l0.074,0.071l0.073,0.071l0.074,0.07l0.073,0.072l0.072,0.072l0.073,0.072l0.072,0.073l0.072,0.072l0.072,0.074l0.071,0.073l0.072,0.075l0.07,0.074l0.07,0.074l0.071,0.075l0.07,0.076l0.07,0.075l0.069,0.076l0.069,0.077l0.069,0.076l0.068,0.077l0.068,0.077l0.068,0.078l0.068,0.078l0.067,0.078l0.067,0.079l0.066,0.078l0.066,0.079l0.066,0.08l0.066,0.08l0.064,0.079l0.065,0.081l0.065,0.081l0.063,0.08l0.064,0.082l0.063,0.081l0.063,0.082l0.062,0.082l0.062,0.082l0.062,0.083l0.061,0.083l0.06,0.083l0.061,0.083l0.06,0.084l0.059,0.084l0.059,0.084l0.059,0.085l0.058,0.084l0.057,0.085l0.057,0.086l0.057,0.085l0.057,0.086l0.055,0.086l0.055,0.086l0.055,0.087l0.055,0.087l0.054,0.087l0.053,0.088l0.053,0.087l0.052,0.088l0.052,0.088l0.051,0.089l0.05,0.088l0.051,0.089l0.049,0.089l0.049,0.089l0.049,0.09l0.048,0.09l0.047,0.09l0.047,0.091l0.046,0.09l0.046,0.091l0.045,0.092l0.044,0.091l0.043,0.091l0.043,0.092l0.043,0.092l0.042,0.093l0.041,0.092l0.041,0.093l0.039,0.094l0.039,0.093l0.039,0.094l0.038,0.094l0.037,0.094l0.036,0.094l0.036,0.095l0.035,0.095l0.034,0.096l0.033,0.096l0.033,0.095l0.032,0.097l0.031,0.096l0.03,0.096l0.029,0.097l0.029,0.098l0.028,0.098l0.027,0.098l0.026,0.098l0.025,0.098l0.024,0.099l0.024,0.099l0.022,0.099l0.022,0.1l0.02,0.1l0.02,0.1l0.019,0.1l0.017,0.101l0.017,0.101l0.015,0.102l0.015,0.101l0.013,0.102l0.013,0.102l0.011,0.103l0.01,0.103l0.009,0.103l0.008,0.103l0.007,0.104l0.005,0.103l0.004,0.105l0.003,0.104l0.002,0.105l0,0.104l-0.001,0.106l-0.002,0.105l-0.004,0.105l-0.005,0.106l-0.006,0.106l-0.008,0.106l-0.01,0.106l-0.01,0.106l-0.013,0.107l-0.013,0.106l-0.016,0.106l-0.015,0.099l-0.017,0.099l-0.019,0.1l-0.02,0.099l-0.021,0.099l-0.023,0.099l-0.024,0.1l-0.025,0.098l-0.027,0.099l-0.029,0.098l-0.03,0.099l-0.031,0.098l-0.033,0.098l-0.035,0.098l-0.036,0.097l-0.037,0.098l-0.039,0.096l-0.04,0.096l-0.043,0.096l-0.043,0.096l-0.045,0.095l-0.047,0.094l-0.048,0.095l-0.049,0.093l-0.052,0.092l-0.052,0.093l-0.054,0.091l-0.056,0.091l-0.057,0.091l-0.059,0.089l-0.06,0.089l-0.061,0.088l-0.063,0.087l-0.064,0.086l-0.065,0.086l-0.068,0.085l-0.068,0.084l-0.069,0.082l-0.071,0.082l-0.073,0.082l-0.073,0.08l-0.075,0.079l-0.076,0.078l-0.077,0.077l-0.079,0.077l-0.08,0.075l-0.081,0.074l-0.082,0.074l-0.083,0.072l-0.084,0.071l-0.086,0.07l-0.086,0.07l-0.088,0.067l-0.088,0.067l-0.09,0.067l-0.091,0.065l-0.092,0.064l-0.092,0.063l-0.094,0.062l-0.095,0.061l-0.096,0.06l-0.097,0.059l-0.097,0.057l-0.099,0.058l-0.1,0.055l-0.101,0.055l-0.101,0.054l-0.103,0.053l-0.103,0.052l-0.104,0.051l-0.105,0.05l-0.107,0.05l-0.107,0.048l-0.108,0.047l-0.108,0.046l-0.11,0.046l-0.111,0.044l-0.112,0.044l-0.112,0.043l-0.114,0.042l-0.114,0.04l-0.115,0.04l-0.116,0.039l-0.118,0.039l-0.118,0.037l-0.118,0.037l-0.121,0.036l-0.121,0.034l-0.121,0.034l-0.123,0.034l-0.124,0.032l-0.124,0.031l-0.126,0.031l-0.127,0.03l-0.127,0.029l-0.129,0.028l-0.129,0.028l-0.131,0.026l-0.131,0.026l-0.133,0.025l-0.133,0.025l-0.135,0.023l-0.136,0.023l-0.136,0.022l-0.138,0.021l-0.139,0.02l-0.139,0.02l-0.141,0.018l-0.142,0.018l-0.143,0.018l-0.144,0.016l-0.146,0.016l-0.145,0.015l-0.148,0.014l-0.149,0.013l-0.149,0.013l-0.151,0.012l-0.152,0.011l-0.153,0.01l-0.154,0.009l-0.155,0.009l-0.157,0.008l-0.158,0.007l-0.158,0.007l-0.16,0.005l-0.162,0.005l-0.162,0.004l-0.171,0.004l-0.106,0.001l-0.113,-0.001l-0.112,-0.002l-0.112,-0.005l-0.113,-0.006l-0.111,-0.008l-0.112,-0.009l-0.111,-0.012l-0.11,-0.013l-0.111,-0.016l-0.11,-0.017l-0.109,-0.018l-0.108,-0.021l-0.108,-0.022l-0.108,-0.024l-0.106,-0.026l-0.107,-0.028l-0.105,-0.029l-0.105,-0.031l-0.104,-0.033l-0.103,-0.034l-0.102,-0.036l-0.102,-0.037l-0.1,-0.039l-0.1,-0.041l-0.099,-0.043l-0.097,-0.043l-0.097,-0.045l-0.095,-0.047l-0.095,-0.048l-0.093,-0.049l-0.093,-0.051l-0.088,-0.05l-0.088,-0.052l-0.086,-0.053l-0.084,-0.054l-0.084,-0.054l-0.081,-0.056l-0.081,-0.057l-0.079,-0.058l-0.078,-0.058l-0.077,-0.059l-0.075,-0.06l-0.074,-0.061l-0.074,-0.061l-0.071,-0.062l-0.071,-0.063l-0.07,-0.063l-0.068,-0.065l-0.068,-0.064l-0.066,-0.065l-0.065,-0.065l-0.064,-0.066l-0.064,-0.067l-0.062,-0.067l-0.062,-0.068l-0.06,-0.068l-0.059,-0.068l-0.059,-0.068l-0.058,-0.069l-0.056,-0.07l-0.056,-0.07l-0.056,-0.07l-0.054,-0.07l-0.053,-0.071l-0.053,-0.071l-0.052,-0.071l-0.051,-0.072l-0.05,-0.072l-0.05,-0.072l-0.049,-0.072l-0.048,-0.073l-0.048,-0.073l-0.047,-0.074l-0.046,-0.072l-0.045,-0.074l-0.045,-0.074l-0.045,-0.074l-0.043,-0.074l-0.043,-0.075l-0.042,-0.074l-0.042,-0.075l-0.041,-0.075l-0.04,-0.075l-0.04,-0.075l-0.04,-0.075l-0.038,-0.076l-0.039,-0.075l-0.037,-0.076l-0.037,-0.076l-0.037,-0.076l-0.035,-0.076l-0.036,-0.076l-0.035,-0.076l-0.034,-0.076l-0.034,-0.077l-0.033,-0.077l-0.032,-0.076l-0.032,-0.076l-0.032,-0.077l-0.031,-0.076l-0.03,-0.077l-0.031,-0.077l-0.029,-0.077l-0.029,-0.076l-0.029,-0.077l-0.028,-0.077l-0.027,-0.076l-0.027,-0.077l-0.028,-0.081l-0.05,-0.149l-0.049,-0.153l-0.048,-0.153l-0.045,-0.153l-0.044,-0.152l-0.042,-0.153l-0.039,-0.152l-0.038,-0.151l-0.035,-0.151l-0.034,-0.151l-0.032,-0.151l-0.029,-0.15l-0.027,-0.145l-0.014,-0.079l-0.012,-0.075l-0.012,-0.074l-0.012,-0.074l-0.011,-0.075l-0.01,-0.074l-0.01,-0.074l-0.009,-0.075l-0.009,-0.074l-0.008,-0.074l-0.007,-0.074l-0.007,-0.074l-0.007,-0.074l-0.006,-0.073l-0.005,-0.074l-0.005,-0.074l-0.004,-0.075l-0.003,-0.073l-0.002,-0.075l-0.002,-0.075l-0.002,-0.073l0,-0.075l0,-0.075l0.001,-0.061l0.001,-0.108l0.001,-0.105l0,-0.116l-0.001,-0.125l-0.002,-0.135l-0.002,-0.141l-0.005,-0.31l-0.014,-0.693l-0.006,-0.379l-0.003,-0.198l-0.003,-0.201l-0.002,-0.206l-0.001,-0.209l-0.001,-0.213l0,-0.216l0.001,-0.219l0.003,-0.222l0.003,-0.225l0.004,-0.227l0.006,-0.229l0.007,-0.231l0.009,-0.23l0.006,-0.119l0.005,-0.117l0.006,-0.118l0.007,-0.118l0.007,-0.118l0.007,-0.119l0.008,-0.118l0.009,-0.119l0.009,-0.119l0.01,-0.119l0.01,-0.12l0.011,-0.119l0.012,-0.12l0.012,-0.119l0.013,-0.12l0.014,-0.12l0.015,-0.12l0.015,-0.121l0.016,-0.119l0.017,-0.12l0.018,-0.12l0.018,-0.12l0.02,-0.121l0.02,-0.12l0.021,-0.12l0.023,-0.12l0.023,-0.12l0.025,-0.12l0.025,-0.119l0.027,-0.12l0.028,-0.12l0.029,-0.12l0.031,-0.119l0.032,-0.12l0.033,-0.119l0.035,-0.12l0.036,-0.12l0.038,-0.119l0.04,-0.12l0.041,-0.119l0.044,-0.119l0.045,-0.12l0.047,-0.119l0.05,-0.119l0.052,-0.119l0.054,-0.12l0.054,-0.113l0.032,-0.066l0.03,-0.059l0.031,-0.059l0.032,-0.06l0.031,-0.059l0.033,-0.059l0.034,-0.06l0.034,-0.058l0.036,-0.06l0.036,-0.059l0.037,-0.059l0.038,-0.059l0.039,-0.059l0.039,-0.058l0.041,-0.059l0.041,-0.058l0.043,-0.059l0.044,-0.058l0.044,-0.057l0.046,-0.058l0.046,-0.057l0.048,-0.057l0.049,-0.057l0.05,-0.057l0.052,-0.056l0.051,-0.055l0.054,-0.056l0.054,-0.054l0.056,-0.055l0.057,-0.053l0.059,-0.054l0.059,-0.053l0.06,-0.051l0.062,-0.052l0.064,-0.051l0.064,-0.05l0.066,-0.049l0.066,-0.048l0.068,-0.047l0.069,-0.046l0.07,-0.045l0.072,-0.045l0.072,-0.043l0.074,-0.042l0.076,-0.041l0.075,-0.04l0.076,-0.038l0.078,-0.037l0.079,-0.035l0.079,-0.034l0.081,-0.034l0.081,-0.031l0.082,-0.03l0.083,-0.029l0.101,-0.032l0.102,-0.03l0.101,-0.029l0.102,-0.026l0.102,-0.024l0.101,-0.022l0.102,-0.019l0.101,-0.018l0.1,-0.016l0.101,-0.014l0.1,-0.012l0.099,-0.01l0.101,-0.009l0.098,-0.007l0.098,-0.005l0.098,-0.004l0.099,-0.002l0.097,0l0.097,0Zm0.083,5.613l-0.016,0.039l-0.016,0.042l-0.016,0.045l-0.016,0.047l-0.017,0.05l-0.016,0.052l-0.017,0.054l-0.016,0.056l-0.017,0.059l-0.016,0.06l-0.016,0.063l-0.015,0.064l-0.016,0.067l-0.015,0.068l-0.015,0.07l-0.015,0.071l-0.014,0.073l-0.014,0.075l-0.014,0.076l-0.013,0.078l-0.012,0.079l-0.013,0.08l-0.012,0.082l-0.012,0.083l-0.011,0.084l-0.011,0.085l-0.01,0.086l-0.01,0.087l-0.01,0.088l-0.009,0.089l-0.008,0.089l-0.009,0.091l-0.008,0.092l-0.007,0.092l-0.008,0.093l-0.006,0.093l-0.007,0.094l-0.006,0.094l-0.005,0.096l-0.006,0.095l-0.005,0.096l-0.004,0.096l-0.004,0.095l-0.008,0.196l-0.006,0.195l-0.005,0.196l-0.004,0.195l-0.003,0.196l-0.002,0.195l-0.001,0.195l0,0.194l0.001,0.192l0.001,0.191l0.002,0.19l0.002,0.188l0.003,0.184l0.006,0.365l0.014,0.693l0.006,0.325l0.002,0.16l0.001,0.155l0.001,0.151l0.001,0.149l-0.001,0.147l-0.002,0.129l0,0.031l0,0.017l0,0.02l0,0.022l0.001,0.022l0.001,0.023l0.001,0.026l0.001,0.025l0.002,0.026l0.002,0.029l0.002,0.029l0.003,0.03l0.003,0.031l0.003,0.031l0.004,0.033l0.003,0.034l0.005,0.034l0.004,0.034l0.005,0.037l0.006,0.036l0.005,0.036l0.006,0.038l0.007,0.039l0.006,0.034l0.015,0.084l0.016,0.082l0.018,0.083l0.019,0.085l0.02,0.086l0.022,0.089l0.023,0.089l0.025,0.09l0.026,0.09l0.027,0.092l0.028,0.092l0.03,0.092l0.033,0.097l0.014,0.042l0.017,0.046l0.016,0.047l0.017,0.046l0.017,0.046l0.018,0.046l0.017,0.046l0.018,0.046l0.019,0.046l0.018,0.046l0.019,0.045l0.019,0.045l0.019,0.046l0.02,0.045l0.019,0.044l0.021,0.045l0.02,0.044l0.02,0.044l0.021,0.044l0.02,0.042l0.021,0.044l0.021,0.042l0.022,0.043l0.021,0.041l0.022,0.042l0.022,0.041l0.022,0.041l0.022,0.04l0.022,0.039l0.022,0.04l0.022,0.038l0.023,0.039l0.022,0.037l0.023,0.037l0.022,0.037l0.023,0.036l0.023,0.036l0.022,0.034l0.023,0.034l0.023,0.034l0.022,0.033l0.023,0.032l0.022,0.031l0.023,0.032l0.022,0.029l0.022,0.03l0.023,0.029l0.021,0.027l0.022,0.028l0.022,0.026l0.021,0.025l0.021,0.025l0.021,0.024l0.021,0.024l0.02,0.022l0.02,0.022l0.02,0.02l0.019,0.02l0.02,0.019l0.018,0.019l0.018,0.017l0.017,0.016l0.018,0.016l0.017,0.015l0.016,0.014l0.015,0.013l0.015,0.012l0.015,0.012l0.014,0.01l0.013,0.01l0.012,0.009l0.012,0.008l0.011,0.008l0.01,0.007l0.01,0.006l0.009,0.005l0.008,0.005l0.007,0.004l0.014,0.008l0.015,0.008l0.014,0.007l0.014,0.007l0.015,0.006l0.015,0.007l0.014,0.006l0.014,0.006l0.014,0.005l0.015,0.006l0.014,0.005l0.015,0.005l0.015,0.004l0.015,0.005l0.015,0.004l0.015,0.004l0.016,0.004l0.017,0.004l0.016,0.003l0.017,0.003l0.018,0.003l0.018,0.003l0.018,0.003l0.019,0.002l0.019,0.002l0.02,0.002l0.021,0.001l0.021,0.001l0.022,0.001l0.023,0.001l0.023,0l0.032,-0.001l0.129,-0.002l0.135,-0.004l0.133,-0.004l0.131,-0.004l0.131,-0.006l0.128,-0.005l0.127,-0.007l0.126,-0.007l0.124,-0.008l0.122,-0.008l0.121,-0.009l0.119,-0.009l0.118,-0.01l0.116,-0.01l0.115,-0.011l0.113,-0.012l0.112,-0.012l0.109,-0.012l0.109,-0.013l0.107,-0.014l0.105,-0.014l0.104,-0.015l0.103,-0.015l0.1,-0.015l0.1,-0.016l0.097,-0.016l0.096,-0.017l0.095,-0.017l0.094,-0.018l0.091,-0.018l0.09,-0.018l0.089,-0.019l0.087,-0.019l0.086,-0.02l0.084,-0.02l0.083,-0.02l0.081,-0.02l0.079,-0.021l0.078,-0.021l0.077,-0.022l0.075,-0.021l0.074,-0.022l0.072,-0.023l0.071,-0.022l0.069,-0.023l0.068,-0.023l0.067,-0.023l0.065,-0.023l0.063,-0.023l0.062,-0.024l0.061,-0.024l0.059,-0.023l0.058,-0.024l0.057,-0.024l0.055,-0.025l0.053,-0.024l0.053,-0.024l0.051,-0.024l0.05,-0.025l0.048,-0.024l0.047,-0.024l0.046,-0.024l0.044,-0.025l0.043,-0.024l0.042,-0.024l0.041,-0.024l0.04,-0.024l0.037,-0.024l0.037,-0.024l0.036,-0.023l0.035,-0.024l0.034,-0.024l0.032,-0.023l0.031,-0.023l0.031,-0.023l0.029,-0.023l0.028,-0.022l0.028,-0.023l0.026,-0.022l0.025,-0.022l0.025,-0.022l0.023,-0.021l0.023,-0.022l0.022,-0.021l0.021,-0.022l0.02,-0.02l0.02,-0.021l0.019,-0.021l0.017,-0.019l0.018,-0.02l0.017,-0.021l0.016,-0.019l0.015,-0.02l0.015,-0.019l0.015,-0.02l0.014,-0.019l0.013,-0.019l0.013,-0.019l0.012,-0.019l0.012,-0.019l0.012,-0.019l0.011,-0.019l0.011,-0.019l0.01,-0.019l0.011,-0.02l0.009,-0.018l0.01,-0.019l0.009,-0.02l0.009,-0.02l0.008,-0.019l0.009,-0.02l0.008,-0.02l0.008,-0.02l0.007,-0.021l0.008,-0.021l0.007,-0.021l0.007,-0.021l0.006,-0.022l0.007,-0.022l0.006,-0.022l0.006,-0.023l0.005,-0.023l0.006,-0.024l0.005,-0.024l0.005,-0.024l0.004,-0.025l0.005,-0.026l0.004,-0.025l0.004,-0.03l0.004,-0.029l0.003,-0.029l0.003,-0.03l0.003,-0.031l0.002,-0.031l0.002,-0.033l0.002,-0.033l0.001,-0.032l0.001,-0.035l0,-0.034l0,-0.036l-0.001,-0.036l-0.001,-0.036l-0.001,-0.037l-0.002,-0.039l-0.003,-0.038l-0.003,-0.039l-0.003,-0.04l-0.004,-0.041l-0.005,-0.04l-0.005,-0.042l-0.005,-0.043l-0.006,-0.043l-0.007,-0.043l-0.007,-0.044l-0.008,-0.045l-0.009,-0.045l-0.008,-0.046l-0.01,-0.047l-0.01,-0.047l-0.011,-0.047l-0.011,-0.048l-0.012,-0.049l-0.013,-0.049l-0.013,-0.05l-0.014,-0.05l-0.014,-0.05l-0.015,-0.051l-0.016,-0.051l-0.016,-0.052l-0.017,-0.053l-0.017,-0.052l-0.018,-0.054l-0.019,-0.053l-0.019,-0.054l-0.02,-0.054l-0.021,-0.055l-0.021,-0.055l-0.022,-0.056l-0.022,-0.055l-0.023,-0.056l-0.024,-0.057l-0.024,-0.057l-0.025,-0.057l-0.026,-0.057l-0.025,-0.057l-0.027,-0.058l-0.027,-0.058l-0.028,-0.059l-0.029,-0.058l-0.029,-0.059l-0.029,-0.059l-0.03,-0.059l-0.031,-0.06l-0.031,-0.059l-0.032,-0.06l-0.032,-0.059l-0.033,-0.061l-0.034,-0.06l-0.034,-0.06l-0.035,-0.061l-0.035,-0.06l-0.035,-0.061l-0.037,-0.061l-0.036,-0.061l-0.038,-0.061l-0.037,-0.061l-0.038,-0.061l-0.039,-0.061l-0.039,-0.062l-0.04,-0.061l-0.04,-0.061l-0.041,-0.062l-0.041,-0.061l-0.042,-0.061l-0.042,-0.062l-0.042,-0.061l-0.043,-0.061l-0.044,-0.062l-0.044,-0.061l-0.044,-0.061l-0.045,-0.062l-0.045,-0.061l-0.046,-0.061l-0.045,-0.061l-0.047,-0.061l-0.047,-0.061l-0.047,-0.061l-0.047,-0.061l-0.048,-0.061l-0.048,-0.06l-0.049,-0.06l-0.049,-0.061l-0.05,-0.06l-0.049,-0.06l-0.05,-0.06l-0.051,-0.06l-0.05,-0.059l-0.051,-0.059l-0.052,-0.06l-0.051,-0.059l-0.052,-0.059l-0.052,-0.058l-0.053,-0.059l-0.052,-0.058l-0.054,-0.058l-0.053,-0.058l-0.054,-0.058l-0.053,-0.057l-0.054,-0.057l-0.055,-0.058l-0.054,-0.056l-0.055,-0.056l-0.055,-0.056l-0.055,-0.057l-0.055,-0.055l-0.056,-0.055l-0.056,-0.056l-0.056,-0.054l-0.056,-0.055l-0.056,-0.054l-0.057,-0.054l-0.056,-0.053l-0.057,-0.054l-0.057,-0.052l-0.057,-0.053l-0.057,-0.052l-0.057,-0.052l-0.058,-0.051l-0.057,-0.052l-0.058,-0.051l-0.057,-0.05l-0.058,-0.05l-0.058,-0.05l-0.058,-0.049l-0.058,-0.049l-0.057,-0.048l-0.058,-0.048l-0.058,-0.048l-0.059,-0.047l-0.057,-0.047l-0.058,-0.046l-0.059,-0.046l-0.058,-0.046l-0.058,-0.045l-0.057,-0.045l-0.059,-0.044l-0.058,-0.044l-0.057,-0.043l-0.058,-0.042l-0.058,-0.043l-0.057,-0.041l-0.058,-0.042l-0.057,-0.041l-0.058,-0.04l-0.057,-0.04l-0.057,-0.039l-0.057,-0.039l-0.056,-0.038l-0.057,-0.038l-0.057,-0.037l-0.056,-0.037l-0.056,-0.036l-0.056,-0.035l-0.056,-0.035l-0.055,-0.035l-0.055,-0.034l-0.055,-0.033l-0.055,-0.033l-0.054,-0.032l-0.054,-0.031l-0.054,-0.031l-0.054,-0.031l-0.053,-0.03l-0.053,-0.029l-0.053,-0.029l-0.052,-0.027l-0.052,-0.028l-0.052,-0.027l-0.05,-0.026l-0.051,-0.025l-0.051,-0.026l-0.049,-0.024l-0.05,-0.023l-0.049,-0.023l-0.048,-0.023l-0.048,-0.021l-0.048,-0.022l-0.047,-0.02l-0.046,-0.02l-0.046,-0.019l-0.045,-0.019l-0.044,-0.017l-0.045,-0.018l-0.044,-0.016l-0.042,-0.016l-0.042,-0.015l-0.042,-0.015l-0.041,-0.014l-0.04,-0.014l-0.039,-0.012l-0.039,-0.013l-0.038,-0.011l-0.037,-0.011l-0.036,-0.01l-0.035,-0.01l-0.035,-0.009l-0.033,-0.008l-0.033,-0.008l-0.032,-0.007l-0.031,-0.007l-0.03,-0.006l-0.028,-0.006l-0.029,-0.005l-0.026,-0.005l-0.026,-0.004l-0.011,-0.001l-0.009,0.021Z" style="fill:#ff0002;"/><g><path d="M59.05,19.272l0.175,0.008l0.174,0.019l0.172,0.029l0.17,0.041l0.168,0.051l0.164,0.062l0.159,0.072l0.155,0.082l0.15,0.091l0.143,0.101l0.137,0.109l0.13,0.118l0.122,0.125l0.114,0.133l0.105,0.14l0.096,0.146l0.087,0.152l0.077,0.158l0.067,0.161l0.053,0.153l0.049,0.063l0.072,0.094l0.043,0.056l0.043,0.06l0.051,0.07l0.048,0.069l0.063,0.095l0.053,0.082l0.054,0.082l0.052,0.082l0.052,0.083l0.052,0.083l0.051,0.082l0.051,0.083l0.05,0.083l0.05,0.083l0.049,0.083l0.049,0.084l0.049,0.083l0.048,0.084l0.047,0.084l0.049,0.086l0.091,0.166l0.092,0.168l0.089,0.169l0.088,0.169l0.087,0.169l0.085,0.169l0.084,0.17l0.082,0.17l0.081,0.17l0.079,0.17l0.078,0.17l0.077,0.171l0.076,0.17l0.074,0.17l0.074,0.17l0.072,0.171l0.071,0.17l0.07,0.17l0.07,0.17l0.068,0.169l0.067,0.17l0.066,0.169l0.066,0.169l0.065,0.169l0.064,0.168l0.063,0.168l0.062,0.168l0.062,0.167l0.061,0.167l0.061,0.168l0.119,0.329l0.117,0.329l0.115,0.327l0.114,0.324l0.111,0.321l0.221,0.633l0.109,0.311l0.108,0.307l0.108,0.303l0.108,0.301l0.053,0.146l0.054,0.146l0.053,0.145l0.059,0.158l0.037,0.1l0.039,0.114l0.037,0.112l0.035,0.113l0.035,0.113l0.033,0.113l0.032,0.115l0.031,0.116l0.031,0.119l0.031,0.119l0.03,0.121l0.031,0.124l0.029,0.125l0.03,0.128l0.03,0.129l0.03,0.132l0.03,0.133l0.03,0.138l0.059,0.277l0.06,0.286l0.061,0.295l0.062,0.303l0.063,0.31l0.127,0.64l0.133,0.665l0.068,0.34l0.069,0.345l0.071,0.348l0.071,0.353l0.074,0.354l0.075,0.357l0.076,0.359l0.078,0.361l0.039,0.178l0.04,0.18l0.04,0.18l0.041,0.18l0.041,0.18l0.042,0.179l0.042,0.179l0.042,0.178l0.043,0.178l0.043,0.177l0.043,0.177l0.044,0.176l0.045,0.175l0.044,0.173l0.046,0.173l0.045,0.172l0.046,0.17l0.047,0.17l0.046,0.167l0.048,0.167l0.047,0.164l0.048,0.163l0.048,0.161l0.049,0.16l0.049,0.157l0.049,0.155l0.05,0.154l0.05,0.151l0.05,0.148l0.051,0.146l0.05,0.144l0.051,0.14l0.051,0.138l0.052,0.135l0.051,0.132l0.053,0.132l0.024,0.061l0.026,0.061l0.026,0.062l0.026,0.061l0.025,0.06l0.026,0.059l0.026,0.058l0.025,0.057l0.026,0.056l0.025,0.055l0.026,0.054l0.025,0.053l0.025,0.052l0.025,0.051l0.025,0.05l0.026,0.05l0.024,0.047l0.024,0.047l0.025,0.046l0.024,0.044l0.024,0.044l0.024,0.042l0.024,0.041l0.023,0.04l0.023,0.038l0.022,0.037l0.023,0.037l0.022,0.035l0.021,0.033l0.022,0.032l0.02,0.031l0.02,0.029l0.021,0.029l0.019,0.027l0.018,0.025l0.018,0.024l0.018,0.023l0.016,0.021l0.016,0.02l0.011,0.013l0.117,0.02l0.17,0.041l0.168,0.051l0.164,0.062l0.16,0.071l0.154,0.082l0.15,0.091l0.143,0.101l0.137,0.109l0.13,0.118l0.122,0.125l0.114,0.133l0.105,0.14l0.097,0.147l0.087,0.152l0.077,0.157l0.067,0.161l0.057,0.166l0.046,0.169l0.036,0.171l0.025,0.174l0.014,0.174l0.003,0.175l-0.008,0.175l-0.019,0.174l-0.03,0.173l-0.04,0.17l-0.051,0.168l-0.062,0.163l-0.072,0.16l-0.082,0.155l-0.091,0.15l-0.1,0.143l-0.11,0.137l-0.117,0.129l-0.126,0.122l-0.133,0.114l-0.14,0.106l-0.146,0.096l-0.152,0.087l-0.157,0.077l-0.162,0.068l-0.165,0.057l-0.169,0.046l-0.172,0.036l-0.173,0.025l-0.175,0.014l-0.175,0.003l-0.085,-0.001l-0.125,-0.006l-0.125,-0.009l-0.123,-0.012l-0.124,-0.016l-0.123,-0.019l-0.121,-0.022l-0.12,-0.026l-0.118,-0.029l-0.117,-0.031l-0.115,-0.035l-0.114,-0.038l-0.111,-0.04l-0.11,-0.042l-0.107,-0.045l-0.105,-0.047l-0.104,-0.049l-0.102,-0.052l-0.099,-0.053l-0.097,-0.055l-0.094,-0.056l-0.093,-0.058l-0.09,-0.059l-0.089,-0.061l-0.086,-0.061l-0.084,-0.063l-0.082,-0.064l-0.081,-0.064l-0.078,-0.066l-0.078,-0.067l-0.075,-0.067l-0.072,-0.068l-0.072,-0.068l-0.07,-0.069l-0.069,-0.071l-0.067,-0.07l-0.066,-0.071l-0.063,-0.071l-0.063,-0.072l-0.062,-0.073l-0.061,-0.073l-0.059,-0.073l-0.058,-0.074l-0.057,-0.074l-0.056,-0.074l-0.055,-0.075l-0.054,-0.076l-0.053,-0.075l-0.052,-0.076l-0.052,-0.077l-0.051,-0.077l-0.049,-0.077l-0.049,-0.077l-0.048,-0.078l-0.048,-0.079l-0.047,-0.079l-0.046,-0.079l-0.046,-0.079l-0.044,-0.079l-0.045,-0.081l-0.044,-0.08l-0.043,-0.081l-0.043,-0.081l-0.042,-0.082l-0.041,-0.081l-0.041,-0.083l-0.041,-0.083l-0.04,-0.082l-0.04,-0.084l-0.039,-0.083l-0.039,-0.084l-0.039,-0.085l-0.038,-0.085l-0.037,-0.085l-0.037,-0.085l-0.037,-0.086l-0.037,-0.085l-0.036,-0.087l-0.036,-0.088l-0.037,-0.089l-0.068,-0.172l-0.069,-0.177l-0.067,-0.177l-0.067,-0.18l-0.065,-0.18l-0.064,-0.181l-0.063,-0.182l-0.062,-0.184l-0.061,-0.184l-0.06,-0.185l-0.059,-0.187l-0.059,-0.187l-0.057,-0.188l-0.057,-0.189l-0.055,-0.189l-0.055,-0.191l-0.054,-0.19l-0.054,-0.192l-0.052,-0.192l-0.052,-0.192l-0.051,-0.192l-0.051,-0.193l-0.05,-0.194l-0.049,-0.194l-0.048,-0.193l-0.048,-0.194l-0.047,-0.194l-0.047,-0.194l-0.046,-0.193l-0.045,-0.194l-0.045,-0.193l-0.044,-0.193l-0.043,-0.192l-0.043,-0.192l-0.043,-0.191l-0.042,-0.193l-0.082,-0.378l-0.08,-0.377l-0.078,-0.373l-0.076,-0.368l-0.075,-0.364l-0.072,-0.357l-0.071,-0.352l-0.069,-0.345l-0.132,-0.666l-0.126,-0.632l-0.061,-0.3l-0.059,-0.289l-0.057,-0.278l-0.056,-0.265l-0.054,-0.253l-0.026,-0.119l-0.026,-0.116l-0.026,-0.113l-0.025,-0.108l-0.024,-0.104l-0.024,-0.1l-0.023,-0.094l-0.022,-0.091l-0.022,-0.085l-0.021,-0.079l-0.02,-0.074l-0.019,-0.068l-0.018,-0.061l-0.017,-0.055l-0.014,-0.046l-0.013,-0.039l-0.01,-0.03l-0.013,-0.035l-0.055,-0.146l-0.059,-0.161l-0.059,-0.16l-0.059,-0.162l-0.114,-0.319l-0.114,-0.32l-0.113,-0.321l-0.112,-0.32l-0.222,-0.636l-0.11,-0.317l-0.111,-0.315l-0.11,-0.314l-0.111,-0.312l-0.112,-0.311l-0.056,-0.153l-0.056,-0.154l-0.057,-0.152l-0.056,-0.153l-0.057,-0.151l-0.058,-0.151l-0.057,-0.15l-0.058,-0.15l-0.059,-0.148l-0.058,-0.148l-0.059,-0.147l-0.06,-0.146l-0.06,-0.145l-0.06,-0.145l-0.061,-0.143l-0.061,-0.142l-0.062,-0.142l-0.063,-0.14l-0.062,-0.139l-0.064,-0.138l-0.064,-0.137l-0.064,-0.136l-0.065,-0.134l-0.066,-0.134l-0.066,-0.132l-0.067,-0.131l-0.068,-0.13l-0.068,-0.128l-0.069,-0.127l-0.071,-0.128l-0.034,-0.06l-0.035,-0.062l-0.035,-0.062l-0.036,-0.061l-0.035,-0.061l-0.036,-0.06l-0.037,-0.061l-0.036,-0.059l-0.036,-0.06l-0.037,-0.059l-0.036,-0.059l-0.037,-0.058l-0.038,-0.058l-0.037,-0.058l-0.037,-0.057l-0.019,-0.028l-0.007,-0.01l-0.049,-0.063l-0.064,-0.082l-0.077,-0.1l-0.085,-0.11l-0.048,-0.064l-0.049,-0.065l-0.05,-0.068l-0.051,-0.072l-0.054,-0.077l-0.055,-0.081l-0.059,-0.089l-0.061,-0.098l-0.059,-0.1l-0.04,-0.07l-0.035,-0.065l-0.037,-0.074l-0.039,-0.081l-0.042,-0.092l-0.042,-0.104l-0.045,-0.12l-0.046,-0.143l-0.044,-0.17l-0.04,-0.203l-0.014,-0.116l-0.013,-0.132l-0.006,-0.133l0,-0.011l0.001,-0.162l0.01,-0.161l0.001,-0.01l0.015,-0.131l0.022,-0.13l0.027,-0.129l0.002,-0.01l0.044,-0.161l0.053,-0.158l0.002,-0.004l0.05,-0.128l0.057,-0.124l0.002,-0.004l0.061,-0.119l0.067,-0.116l0.003,-0.003l0.074,-0.115l0.08,-0.112l0.002,-0.003l0.096,-0.119l0.101,-0.114l0.003,-0.003l0.096,-0.097l0.1,-0.092l0.004,-0.003l0.112,-0.092l0.116,-0.087l0.004,-0.003l0.112,-0.075l0.117,-0.069l0.004,-0.003l0.112,-0.06l0.114,-0.055l0.115,-0.052l0.224,-0.078l0.212,-0.056l0.108,-0.02l0.125,-0.02l0.125,-0.015l0.012,-0.001l0.149,-0.01l0.15,-0.002l0.014,0.001Zm0.094,5.571l-0.175,0.003l0.136,0.002l0.138,-0.013l-0.099,0.008Zm0.194,-0.017l0.03,-0.003l0.035,-0.006l-0.065,0.009Z" style="fill:#ff0002;"/><path d="M65.555,17.322l0.121,0.001l0.12,0.002l0.121,0.002l0.12,0.004l0.121,0.004l0.121,0.005l0.12,0.006l0.12,0.006l0.12,0.008l0.12,0.008l0.12,0.009l0.12,0.009l0.12,0.011l0.12,0.011l0.119,0.012l0.12,0.013l0.119,0.013l0.12,0.014l0.119,0.015l0.118,0.016l0.12,0.017l0.118,0.017l0.118,0.018l0.118,0.019l0.119,0.019l0.118,0.02l0.117,0.021l0.118,0.022l0.117,0.023l0.117,0.023l0.117,0.024l0.117,0.025l0.116,0.025l0.117,0.026l0.115,0.027l0.116,0.028l0.116,0.028l0.115,0.029l0.115,0.03l0.114,0.031l0.115,0.031l0.114,0.032l0.114,0.033l0.113,0.033l0.113,0.034l0.113,0.036l0.113,0.035l0.112,0.037l0.112,0.037l0.111,0.038l0.111,0.039l0.112,0.039l0.11,0.04l0.11,0.041l0.11,0.042l0.109,0.042l0.109,0.044l0.109,0.044l0.108,0.044l0.107,0.046l0.108,0.046l0.107,0.047l0.106,0.047l0.107,0.049l0.105,0.049l0.105,0.05l0.105,0.051l0.104,0.052l0.104,0.052l0.103,0.053l0.103,0.054l0.102,0.055l0.102,0.056l0.101,0.056l0.101,0.057l0.101,0.058l0.1,0.059l0.098,0.059l0.099,0.061l0.098,0.061l0.098,0.062l0.097,0.063l0.096,0.064l0.096,0.064l0.095,0.066l0.094,0.066l0.094,0.067l0.093,0.069l0.093,0.069l0.091,0.069l0.092,0.071l0.09,0.072l0.09,0.072l0.089,0.074l0.089,0.074l0.087,0.076l0.087,0.076l0.086,0.077l0.085,0.079l0.085,0.078l0.083,0.081l0.083,0.081l0.082,0.082l0.081,0.083l0.081,0.084l0.079,0.085l0.079,0.086l0.077,0.087l0.076,0.088l0.076,0.09l0.074,0.089l0.074,0.092l0.072,0.092l0.071,0.093l0.071,0.094l0.069,0.096l0.068,0.097l0.067,0.097l0.065,0.099l0.065,0.099l0.063,0.101l0.062,0.102l0.06,0.102l0.06,0.104l0.057,0.105l0.057,0.105l0.055,0.108l0.053,0.108l0.053,0.109l0.05,0.109l0.049,0.111l0.047,0.112l0.046,0.113l0.045,0.114l0.042,0.114l0.041,0.115l0.039,0.117l0.037,0.118l0.036,0.118l0.034,0.118l0.032,0.12l0.03,0.12l0.028,0.122l0.026,0.122l0.025,0.123l0.022,0.122l0.02,0.124l0.019,0.125l0.016,0.125l0.015,0.126l0.012,0.126l0.011,0.126l0.008,0.127l0.006,0.127l0.004,0.128l0.003,0.128l0,0.128l-0.002,0.129l-0.005,0.128l-0.006,0.129l-0.008,0.129l-0.011,0.129l-0.012,0.129l-0.015,0.13l-0.016,0.129l-0.019,0.129l-0.021,0.13l-0.022,0.129l-0.025,0.129l-0.027,0.129l-0.029,0.129l-0.031,0.129l-0.033,0.129l-0.035,0.128l-0.037,0.128l-0.039,0.129l-0.04,0.128l-0.043,0.128l-0.045,0.127l-0.047,0.127l-0.048,0.128l-0.051,0.126l-0.052,0.126l-0.054,0.126l-0.056,0.127l-0.058,0.125l-0.06,0.126l-0.062,0.125l-0.03,0.061l-0.032,0.06l-0.032,0.06l-0.032,0.058l-0.033,0.058l-0.036,0.062l-0.062,0.105l-0.068,0.109l-0.069,0.107l-0.07,0.106l-0.072,0.104l-0.072,0.103l-0.074,0.103l-0.076,0.102l-0.076,0.102l-0.079,0.101l-0.079,0.102l-0.081,0.101l-0.082,0.102l-0.084,0.101l-0.085,0.102l-0.086,0.102l-0.088,0.102l-0.09,0.103l-0.09,0.102l-0.092,0.103l-0.093,0.104l-0.094,0.103l-0.095,0.104l-0.097,0.104l-0.098,0.105l-0.099,0.105l-0.099,0.105l-0.101,0.105l-0.103,0.106l-0.102,0.106l-0.105,0.106l-0.104,0.106l-0.106,0.106l-0.106,0.107l-0.108,0.106l-0.108,0.107l-0.108,0.106l-0.11,0.107l-0.11,0.107l-0.11,0.106l-0.111,0.107l-0.112,0.106l-0.112,0.106l-0.112,0.106l-0.114,0.107l-0.225,0.21l-0.227,0.209l-0.228,0.209l-0.228,0.206l-0.227,0.204l-0.227,0.202l-0.226,0.199l-0.225,0.196l-0.223,0.193l-0.22,0.19l-0.219,0.186l-0.216,0.182l-0.212,0.177l-0.209,0.173l-0.206,0.168l-0.201,0.163l-0.198,0.158l-0.192,0.153l-0.186,0.145l-0.094,0.072l-0.091,0.07l-0.09,0.069l-0.089,0.066l-0.087,0.065l-0.086,0.064l-0.085,0.063l-0.084,0.06l-0.083,0.06l-0.081,0.058l-0.081,0.056l-0.081,0.055l-0.079,0.054l-0.079,0.053l-0.079,0.051l-0.079,0.051l-0.081,0.05l-0.081,0.05l-0.083,0.049l-0.088,0.049l-0.091,0.05l-0.099,0.05l-0.109,0.053l-0.123,0.054l-0.126,0.051l-0.099,0.035l-0.088,0.029l-0.102,0.03l-0.116,0.029l-0.133,0.029l-0.157,0.025l-0.176,0.019l-0.212,0.008l-0.12,-0.005l-0.127,-0.008l-0.126,-0.013l-0.008,-0.001l-0.106,-0.017l-0.106,-0.02l-0.105,-0.024l-0.007,-0.002l-0.114,-0.031l-0.113,-0.036l-0.11,-0.041l-0.007,-0.003l-0.132,-0.055l-0.128,-0.063l-0.126,-0.069l-0.005,-0.003l-0.1,-0.061l-0.098,-0.065l-0.094,-0.07l-0.092,-0.073l-0.005,-0.004l-0.092,-0.081l-0.088,-0.084l-0.085,-0.088l-0.08,-0.092l-0.004,-0.005l-0.076,-0.094l-0.072,-0.097l-0.067,-0.101l-0.063,-0.103l-0.003,-0.006l-0.054,-0.098l-0.051,-0.1l-0.046,-0.102l-0.042,-0.104l-0.002,-0.007l-0.046,-0.129l-0.04,-0.132l-0.032,-0.133l-0.002,-0.007l-0.022,-0.113l-0.018,-0.113l-0.013,-0.113l-0.001,-0.008l-0.007,-0.099l-0.004,-0.099l0,-0.1l0,-0.008l0.004,-0.124l0.01,-0.123l0.012,-0.113l0.035,-0.197l0.041,-0.167l0.042,-0.143l0.044,-0.124l0.043,-0.108l0.04,-0.094l0.041,-0.087l0.039,-0.077l0.037,-0.068l0.036,-0.066l0.042,-0.071l0.041,-0.068l0.079,-0.12l0.084,-0.116l0.091,-0.111l0.096,-0.107l0.101,-0.101l0.107,-0.097l0.111,-0.09l0.116,-0.085l0.12,-0.079l0.124,-0.072l0.128,-0.066l0.13,-0.059l0.134,-0.053l0.136,-0.045l0.138,-0.039l0.141,-0.031l0.079,-0.013l0.018,-0.014l0.071,-0.053l0.072,-0.055l0.074,-0.057l0.075,-0.058l0.161,-0.125l0.166,-0.131l0.172,-0.138l0.178,-0.145l0.183,-0.149l0.188,-0.156l0.192,-0.16l0.196,-0.165l0.199,-0.17l0.202,-0.174l0.205,-0.177l0.206,-0.18l0.207,-0.183l0.209,-0.185l0.209,-0.188l0.209,-0.189l0.208,-0.191l0.208,-0.191l0.208,-0.194l0.101,-0.095l0.102,-0.096l0.101,-0.096l0.101,-0.096l0.1,-0.096l0.1,-0.096l0.098,-0.096l0.098,-0.095l0.097,-0.095l0.096,-0.094l0.094,-0.094l0.094,-0.094l0.093,-0.093l0.091,-0.093l0.09,-0.091l0.089,-0.091l0.087,-0.091l0.086,-0.089l0.084,-0.089l0.083,-0.087l0.08,-0.087l0.08,-0.085l0.077,-0.084l0.075,-0.083l0.074,-0.082l0.071,-0.08l0.07,-0.079l0.067,-0.077l0.064,-0.076l0.063,-0.074l0.06,-0.072l0.058,-0.069l0.054,-0.068l0.053,-0.065l0.049,-0.063l0.046,-0.06l0.043,-0.057l0.04,-0.055l0.037,-0.05l0.034,-0.048l0.029,-0.044l0.027,-0.039l0.022,-0.035l0.018,-0.029l0.018,-0.031l0.003,-0.004l0.004,-0.008l0.004,-0.006l0.002,-0.004l0.002,-0.003l0,-0.001l0.03,-0.062l0.03,-0.061l0.027,-0.06l0.026,-0.059l0.025,-0.058l0.024,-0.058l0.023,-0.056l0.021,-0.056l0.02,-0.054l0.019,-0.054l0.017,-0.053l0.017,-0.052l0.015,-0.051l0.015,-0.05l0.013,-0.049l0.013,-0.049l0.011,-0.047l0.011,-0.047l0.009,-0.046l0.009,-0.045l0.008,-0.045l0.007,-0.044l0.006,-0.043l0.005,-0.042l0.005,-0.041l0.004,-0.042l0.003,-0.04l0.003,-0.039l0.002,-0.039l0.001,-0.039l0.001,-0.039l0,-0.037l-0.001,-0.037l-0.001,-0.037l-0.002,-0.036l-0.002,-0.036l-0.003,-0.036l-0.004,-0.035l-0.004,-0.034l-0.004,-0.036l-0.005,-0.034l-0.006,-0.034l-0.006,-0.034l-0.007,-0.034l-0.007,-0.034l-0.008,-0.033l-0.009,-0.034l-0.009,-0.034l-0.009,-0.033l-0.01,-0.034l-0.011,-0.033l-0.011,-0.034l-0.012,-0.034l-0.013,-0.034l-0.013,-0.034l-0.014,-0.033l-0.014,-0.034l-0.015,-0.035l-0.016,-0.034l-0.017,-0.035l-0.017,-0.034l-0.017,-0.035l-0.019,-0.035l-0.02,-0.035l-0.02,-0.035l-0.021,-0.036l-0.021,-0.035l-0.023,-0.036l-0.023,-0.036l-0.024,-0.036l-0.025,-0.037l-0.025,-0.036l-0.027,-0.036l-0.027,-0.037l-0.029,-0.037l-0.028,-0.037l-0.03,-0.037l-0.031,-0.037l-0.031,-0.037l-0.033,-0.038l-0.033,-0.037l-0.034,-0.037l-0.035,-0.038l-0.036,-0.038l-0.037,-0.038l-0.038,-0.037l-0.038,-0.038l-0.04,-0.038l-0.04,-0.038l-0.041,-0.037l-0.042,-0.038l-0.043,-0.038l-0.044,-0.037l-0.045,-0.038l-0.045,-0.037l-0.047,-0.038l-0.047,-0.037l-0.048,-0.038l-0.049,-0.037l-0.05,-0.037l-0.05,-0.037l-0.051,-0.036l-0.052,-0.037l-0.053,-0.037l-0.054,-0.036l-0.055,-0.036l-0.055,-0.036l-0.056,-0.035l-0.057,-0.036l-0.057,-0.035l-0.059,-0.036l-0.059,-0.034l-0.059,-0.035l-0.061,-0.034l-0.062,-0.034l-0.062,-0.034l-0.062,-0.033l-0.063,-0.034l-0.064,-0.033l-0.065,-0.032l-0.066,-0.033l-0.065,-0.031l-0.067,-0.032l-0.067,-0.032l-0.068,-0.03l-0.068,-0.031l-0.069,-0.031l-0.069,-0.029l-0.071,-0.03l-0.071,-0.029l-0.071,-0.029l-0.071,-0.028l-0.073,-0.028l-0.072,-0.028l-0.074,-0.027l-0.074,-0.027l-0.074,-0.027l-0.074,-0.026l-0.076,-0.025l-0.075,-0.025l-0.076,-0.025l-0.077,-0.024l-0.076,-0.024l-0.078,-0.024l-0.077,-0.023l-0.079,-0.022l-0.078,-0.022l-0.079,-0.022l-0.079,-0.021l-0.079,-0.02l-0.08,-0.021l-0.08,-0.019l-0.08,-0.019l-0.081,-0.019l-0.081,-0.018l-0.081,-0.018l-0.082,-0.017l-0.081,-0.017l-0.082,-0.016l-0.082,-0.016l-0.083,-0.015l-0.083,-0.015l-0.082,-0.014l-0.083,-0.014l-0.083,-0.013l-0.084,-0.013l-0.083,-0.012l-0.083,-0.011l-0.084,-0.012l-0.083,-0.01l-0.084,-0.01l-0.084,-0.01l-0.084,-0.009l-0.084,-0.008l-0.084,-0.008l-0.084,-0.007l-0.084,-0.007l-0.084,-0.006l-0.085,-0.006l-0.084,-0.005l-0.084,-0.004l-0.084,-0.005l-0.084,-0.003l-0.084,-0.003l-0.084,-0.002l-0.083,-0.002l-0.084,-0.001l-0.084,-0.001l-0.083,0l-0.084,0l-0.083,0.001l-0.083,0.002l-0.083,0.002l-0.082,0.002l-0.083,0.004l-0.083,0.003l-0.081,0.005l-0.082,0.004l-0.083,0.006l-0.081,0.006l-0.081,0.006l-0.081,0.008l-0.081,0.007l-0.08,0.008l-0.081,0.009l-0.08,0.01l-0.079,0.009l-0.079,0.011l-0.079,0.011l-0.079,0.011l-0.078,0.012l-0.078,0.013l-0.077,0.013l-0.077,0.014l-0.077,0.014l-0.076,0.015l-0.076,0.015l-0.075,0.016l-0.075,0.016l-0.074,0.017l-0.074,0.018l-0.074,0.018l-0.073,0.018l-0.073,0.019l-0.072,0.02l-0.072,0.02l-0.071,0.02l-0.07,0.021l-0.07,0.022l-0.069,0.022l-0.07,0.022l-0.067,0.023l-0.068,0.024l-0.068,0.024l-0.066,0.024l-0.066,0.025l-0.066,0.025l-0.064,0.026l-0.064,0.026l-0.064,0.027l-0.063,0.027l-0.062,0.028l-0.062,0.028l-0.061,0.029l-0.06,0.029l-0.06,0.029l-0.059,0.03l-0.059,0.03l-0.058,0.031l-0.057,0.031l-0.056,0.031l-0.055,0.032l-0.055,0.032l-0.055,0.033l-0.054,0.033l-0.066,0.042l-0.123,0.073l-0.127,0.067l-0.13,0.061l-0.133,0.053l-0.136,0.047l-0.138,0.04l-0.14,0.032l-0.141,0.025l-0.143,0.018l-0.143,0.011l-0.143,0.003l-0.144,-0.004l-0.143,-0.012l-0.142,-0.019l-0.141,-0.026l-0.14,-0.033l-0.137,-0.041l-0.136,-0.048l-0.133,-0.054l-0.129,-0.062l-0.127,-0.067l-0.123,-0.075l-0.118,-0.08l-0.115,-0.087l-0.11,-0.092l-0.105,-0.098l-0.1,-0.103l-0.094,-0.108l-0.089,-0.113l-0.083,-0.118l-0.076,-0.121l-0.07,-0.125l-0.064,-0.129l-0.057,-0.132l-0.05,-0.134l-0.043,-0.137l-0.037,-0.139l-0.028,-0.14l-0.022,-0.142l-0.014,-0.143l-0.007,-0.144l0,-0.143l0.008,-0.143l0.016,-0.143l0.022,-0.142l0.03,-0.14l0.037,-0.139l0.044,-0.137l0.051,-0.134l0.058,-0.131l0.065,-0.128l0.071,-0.125l0.078,-0.121l0.083,-0.116l0.09,-0.113l0.095,-0.107l0.1,-0.103l0.106,-0.097l0.111,-0.091l0.115,-0.086l0.119,-0.08l0.092,-0.058l0.106,-0.065l0.106,-0.063l0.106,-0.063l0.108,-0.062l0.108,-0.06l0.108,-0.059l0.108,-0.057l0.11,-0.057l0.11,-0.055l0.11,-0.055l0.11,-0.053l0.112,-0.052l0.111,-0.05l0.112,-0.05l0.112,-0.049l0.113,-0.047l0.113,-0.046l0.113,-0.046l0.114,-0.044l0.114,-0.043l0.115,-0.042l0.114,-0.041l0.115,-0.04l0.116,-0.038l0.115,-0.038l0.116,-0.037l0.117,-0.036l0.116,-0.034l0.117,-0.034l0.116,-0.033l0.118,-0.031l0.117,-0.031l0.118,-0.03l0.117,-0.029l0.118,-0.027l0.119,-0.027l0.118,-0.026l0.119,-0.025l0.119,-0.024l0.119,-0.023l0.118,-0.022l0.12,-0.021l0.119,-0.021l0.12,-0.019l0.119,-0.019l0.12,-0.017l0.12,-0.017l0.12,-0.016l0.12,-0.015l0.12,-0.014l0.12,-0.013l0.12,-0.012l0.121,-0.011l0.121,-0.011l0.12,-0.01l0.121,-0.009l0.12,-0.008l0.12,-0.007l0.122,-0.006l0.12,-0.006l0.121,-0.004l0.121,-0.004l0.12,-0.003l0.121,-0.002l0.121,-0.002l0.12,0l0.121,0Z" style="fill:#ff0002;"/></g><path d="M93.899,15.433l0.134,0.004l0.133,0.006l0.134,0.008l0.133,0.01l0.134,0.012l0.128,0.014l0.073,0.01l0.066,0.008l0.068,0.01l0.067,0.01l0.067,0.011l0.068,0.011l0.066,0.012l0.067,0.012l0.068,0.014l0.067,0.014l0.067,0.014l0.066,0.015l0.067,0.016l0.068,0.017l0.066,0.017l0.067,0.018l0.067,0.018l0.066,0.02l0.067,0.02l0.067,0.02l0.065,0.021l0.067,0.023l0.067,0.023l0.066,0.023l0.066,0.024l0.065,0.025l0.065,0.025l0.067,0.027l0.065,0.027l0.066,0.028l0.065,0.029l0.065,0.029l0.064,0.03l0.064,0.031l0.065,0.032l0.064,0.032l0.065,0.034l0.063,0.034l0.063,0.034l0.063,0.036l0.063,0.037l0.063,0.037l0.062,0.038l0.062,0.038l0.062,0.04l0.06,0.04l0.062,0.041l0.06,0.041l0.06,0.043l0.06,0.044l0.059,0.043l0.059,0.045l0.059,0.047l0.058,0.046l0.057,0.047l0.058,0.048l0.055,0.048l0.057,0.05l0.056,0.05l0.055,0.051l0.055,0.052l0.053,0.051l0.054,0.053l0.053,0.055l0.053,0.054l0.051,0.055l0.051,0.055l0.051,0.057l0.05,0.058l0.049,0.058l0.049,0.058l0.048,0.059l0.047,0.06l0.047,0.06l0.046,0.061l0.046,0.062l0.045,0.062l0.044,0.063l0.043,0.063l0.042,0.063l0.043,0.066l0.041,0.065l0.04,0.065l0.04,0.065l0.04,0.067l0.038,0.068l0.038,0.067l0.037,0.068l0.036,0.069l0.036,0.069l0.035,0.069l0.034,0.07l0.033,0.07l0.033,0.071l0.031,0.071l0.032,0.072l0.03,0.073l0.03,0.072l0.029,0.072l0.028,0.074l0.027,0.073l0.027,0.074l0.026,0.075l0.026,0.075l0.024,0.074l0.024,0.076l0.023,0.076l0.022,0.077l0.022,0.076l0.021,0.076l0.02,0.077l0.02,0.078l0.019,0.077l0.018,0.079l0.018,0.079l0.016,0.078l0.016,0.079l0.016,0.079l0.014,0.08l0.014,0.079l0.014,0.081l0.012,0.08l0.012,0.081l0.012,0.081l0.01,0.082l0.01,0.081l0.01,0.082l0.008,0.082l0.008,0.083l0.008,0.083l0.006,0.083l0.006,0.084l0.006,0.083l0.005,0.084l0.004,0.085l0.003,0.084l0.003,0.084l0.002,0.086l0.002,0.085l0.001,0.087l0,0.089l0,0.09l-0.001,0.091l-0.002,0.089l-0.003,0.089l-0.003,0.09l-0.004,0.089l-0.005,0.089l-0.006,0.088l-0.006,0.088l-0.007,0.088l-0.008,0.087l-0.009,0.087l-0.009,0.087l-0.01,0.088l-0.011,0.087l-0.012,0.085l-0.012,0.085l-0.013,0.087l-0.014,0.085l-0.015,0.084l-0.016,0.086l-0.016,0.083l-0.017,0.084l-0.018,0.085l-0.018,0.082l-0.02,0.083l-0.02,0.083l-0.021,0.082l-0.021,0.082l-0.023,0.082l-0.023,0.081l-0.024,0.08l-0.025,0.082l-0.025,0.079l-0.026,0.079l-0.028,0.079l-0.027,0.079l-0.029,0.078l-0.029,0.079l-0.03,0.076l-0.031,0.078l-0.031,0.076l-0.032,0.076l-0.033,0.075l-0.033,0.075l-0.035,0.075l-0.034,0.074l-0.035,0.072l-0.037,0.074l-0.037,0.073l-0.037,0.071l-0.038,0.072l-0.039,0.071l-0.039,0.07l-0.04,0.07l-0.041,0.069l-0.041,0.068l-0.041,0.068l-0.043,0.068l-0.042,0.067l-0.044,0.066l-0.044,0.067l-0.044,0.064l-0.045,0.065l-0.045,0.063l-0.046,0.064l-0.047,0.063l-0.046,0.063l-0.047,0.061l-0.048,0.061l-0.048,0.061l-0.049,0.059l-0.049,0.06l-0.049,0.059l-0.049,0.058l-0.051,0.057l-0.05,0.058l-0.051,0.056l-0.051,0.056l-0.051,0.055l-0.052,0.055l-0.053,0.054l-0.051,0.053l-0.053,0.054l-0.054,0.053l-0.053,0.052l-0.053,0.051l-0.054,0.051l-0.054,0.05l-0.054,0.05l-0.055,0.05l-0.054,0.049l-0.059,0.051l-0.107,0.092l-0.111,0.093l-0.112,0.092l-0.113,0.09l-0.113,0.088l-0.114,0.086l-0.115,0.084l-0.115,0.083l-0.115,0.081l-0.116,0.08l-0.116,0.078l-0.117,0.077l-0.117,0.076l-0.118,0.074l-0.117,0.073l-0.118,0.071l-0.118,0.071l-0.119,0.07l-0.119,0.068l-0.118,0.067l-0.12,0.067l-0.119,0.065l-0.119,0.065l-0.12,0.063l-0.119,0.063l-0.12,0.063l-0.12,0.061l-0.12,0.061l-0.12,0.06l-0.12,0.059l-0.12,0.059l-0.12,0.058l-0.12,0.058l-0.12,0.058l-0.122,0.057l-0.238,0.112l-0.24,0.111l-0.239,0.11l-0.239,0.109l-0.238,0.109l-0.475,0.215l-0.236,0.107l-0.234,0.108l-0.234,0.108l-0.232,0.108l-0.233,0.109l-0.113,0.054l-0.115,0.055l-0.114,0.055l-0.113,0.055l-0.114,0.056l-0.112,0.056l-0.113,0.056l-0.111,0.056l-0.111,0.057l-0.111,0.057l-0.11,0.057l-0.11,0.058l-0.109,0.059l-0.109,0.058l-0.107,0.059l-0.107,0.06l-0.107,0.06l-0.106,0.06l-0.105,0.061l-0.105,0.061l-0.104,0.062l-0.043,0.026l0.037,0.052l0.043,0.059l0.043,0.058l0.043,0.058l0.044,0.057l0.045,0.058l0.044,0.056l0.045,0.057l0.046,0.056l0.045,0.054l0.047,0.056l0.046,0.054l0.047,0.054l0.047,0.053l0.047,0.054l0.048,0.052l0.048,0.052l0.048,0.051l0.049,0.051l0.049,0.05l0.049,0.05l0.049,0.049l0.05,0.049l0.05,0.048l0.05,0.047l0.05,0.047l0.051,0.046l0.05,0.046l0.051,0.045l0.052,0.044l0.051,0.044l0.051,0.042l0.052,0.043l0.052,0.042l0.051,0.041l0.052,0.04l0.052,0.039l0.053,0.039l0.052,0.039l0.052,0.037l0.052,0.037l0.053,0.036l0.052,0.035l0.053,0.035l0.052,0.034l0.052,0.033l0.054,0.033l0.052,0.031l0.052,0.031l0.054,0.031l0.052,0.029l0.052,0.029l0.053,0.028l0.052,0.027l0.053,0.027l0.052,0.025l0.052,0.025l0.052,0.025l0.052,0.023l0.052,0.023l0.052,0.022l0.051,0.021l0.052,0.021l0.052,0.019l0.051,0.019l0.051,0.019l0.051,0.017l0.051,0.017l0.059,0.019l0.256,0.079l0.125,0.038l0.121,0.036l0.117,0.034l0.117,0.034l0.053,0.014l0.053,0.015l0.054,0.014l0.054,0.014l0.052,0.013l0.052,0.013l0.051,0.012l0.051,0.012l0.051,0.011l0.05,0.01l0.05,0.01l0.05,0.01l0.05,0.009l0.049,0.009l0.05,0.008l0.049,0.007l0.049,0.007l0.051,0.007l0.05,0.006l0.05,0.005l0.052,0.005l0.051,0.005l0.052,0.004l0.052,0.003l0.054,0.003l0.054,0.002l0.056,0.002l0.056,0l0.057,0.001l0.058,-0.001l0.06,-0.001l0.06,-0.002l0.062,-0.002l0.064,-0.004l0.065,-0.004l0.067,-0.005l0.067,-0.006l0.07,-0.007l0.071,-0.008l0.073,-0.009l0.075,-0.01l0.076,-0.011l0.079,-0.012l0.081,-0.014l0.082,-0.014l0.084,-0.016l0.086,-0.018l0.089,-0.018l0.09,-0.02l0.093,-0.022l0.095,-0.023l0.11,-0.028l0.152,-0.034l0.155,-0.025l0.155,-0.017l0.156,-0.008l0.157,0.001l0.156,0.01l0.155,0.018l0.154,0.027l0.152,0.036l0.15,0.044l0.148,0.052l0.144,0.061l0.14,0.069l0.137,0.076l0.132,0.084l0.127,0.091l0.121,0.098l0.116,0.105l0.11,0.111l0.104,0.117l0.097,0.123l0.09,0.128l0.082,0.133l0.075,0.137l0.067,0.141l0.059,0.145l0.051,0.148l0.043,0.15l0.034,0.153l0.025,0.154l0.017,0.156l0.008,0.156l-0.001,0.156l-0.01,0.156l-0.018,0.156l-0.027,0.154l-0.036,0.152l-0.044,0.15l-0.052,0.147l-0.061,0.144l-0.069,0.141l-0.076,0.136l-0.084,0.132l-0.091,0.127l-0.098,0.122l-0.105,0.116l-0.111,0.11l-0.117,0.103l-0.123,0.097l-0.128,0.09l-0.133,0.083l-0.137,0.075l-0.141,0.067l-0.145,0.059l-0.148,0.051l-0.15,0.042l-0.136,0.034l-0.148,0.036l-0.146,0.034l-0.145,0.032l-0.143,0.03l-0.143,0.029l-0.142,0.027l-0.14,0.025l-0.139,0.023l-0.138,0.022l-0.137,0.019l-0.136,0.019l-0.135,0.016l-0.133,0.015l-0.133,0.014l-0.132,0.011l-0.13,0.01l-0.13,0.009l-0.128,0.007l-0.127,0.005l-0.127,0.004l-0.124,0.002l-0.124,0.001l-0.124,-0.001l-0.121,-0.002l-0.12,-0.003l-0.119,-0.005l-0.118,-0.006l-0.117,-0.008l-0.115,-0.008l-0.115,-0.01l-0.112,-0.011l-0.112,-0.012l-0.11,-0.013l-0.108,-0.015l-0.108,-0.015l-0.106,-0.016l-0.104,-0.017l-0.104,-0.018l-0.101,-0.018l-0.1,-0.019l-0.098,-0.02l-0.098,-0.021l-0.095,-0.021l-0.094,-0.021l-0.092,-0.022l-0.091,-0.022l-0.09,-0.023l-0.087,-0.022l-0.086,-0.023l-0.086,-0.023l-0.086,-0.024l-0.158,-0.045l-0.155,-0.046l-0.15,-0.045l-0.145,-0.044l-0.28,-0.087l-0.108,-0.034l-0.116,-0.038l-0.116,-0.039l-0.114,-0.041l-0.114,-0.042l-0.113,-0.044l-0.112,-0.044l-0.113,-0.046l-0.111,-0.048l-0.11,-0.048l-0.11,-0.05l-0.109,-0.05l-0.108,-0.052l-0.108,-0.053l-0.106,-0.054l-0.106,-0.055l-0.105,-0.056l-0.105,-0.058l-0.104,-0.058l-0.102,-0.059l-0.103,-0.061l-0.102,-0.061l-0.1,-0.062l-0.101,-0.064l-0.099,-0.064l-0.098,-0.064l-0.098,-0.067l-0.098,-0.067l-0.096,-0.067l-0.096,-0.069l-0.095,-0.07l-0.094,-0.07l-0.093,-0.071l-0.093,-0.072l-0.092,-0.073l-0.091,-0.073l-0.091,-0.074l-0.09,-0.076l-0.089,-0.076l-0.088,-0.076l-0.087,-0.077l-0.087,-0.078l-0.087,-0.079l-0.085,-0.079l-0.085,-0.081l-0.084,-0.081l-0.083,-0.081l-0.082,-0.082l-0.082,-0.083l-0.081,-0.083l-0.08,-0.084l-0.08,-0.085l-0.079,-0.085l-0.078,-0.086l-0.077,-0.086l-0.077,-0.087l-0.076,-0.088l-0.075,-0.088l-0.074,-0.088l-0.074,-0.09l-0.073,-0.09l-0.072,-0.09l-0.072,-0.091l-0.071,-0.091l-0.07,-0.092l-0.069,-0.092l-0.069,-0.093l-0.067,-0.093l-0.067,-0.094l-0.067,-0.094l-0.065,-0.095l-0.065,-0.095l-0.064,-0.096l-0.063,-0.096l-0.063,-0.096l-0.061,-0.097l-0.062,-0.097l-0.06,-0.098l-0.059,-0.098l-0.059,-0.099l-0.058,-0.099l-0.057,-0.099l-0.056,-0.1l-0.056,-0.1l-0.055,-0.1l-0.054,-0.101l-0.053,-0.101l-0.052,-0.101l-0.052,-0.102l-0.05,-0.102l-0.05,-0.103l-0.05,-0.103l-0.048,-0.103l-0.047,-0.103l-0.047,-0.104l-0.046,-0.104l-0.045,-0.104l-0.044,-0.105l-0.043,-0.105l-0.043,-0.105l-0.041,-0.106l-0.041,-0.106l-0.04,-0.106l-0.039,-0.106l-0.038,-0.107l-0.037,-0.107l-0.036,-0.107l-0.036,-0.107l-0.034,-0.108l-0.034,-0.108l-0.032,-0.108l-0.032,-0.108l-0.031,-0.108l-0.03,-0.109l-0.029,-0.109l-0.027,-0.109l-0.027,-0.109l-0.026,-0.11l-0.025,-0.11l-0.024,-0.111l-0.023,-0.11l-0.022,-0.11l-0.021,-0.11l-0.02,-0.112l-0.019,-0.11l-0.018,-0.111l-0.016,-0.112l-0.016,-0.11l-0.017,-0.132l-0.016,-0.131l-0.015,-0.132l-0.014,-0.13l-0.013,-0.131l-0.012,-0.131l-0.011,-0.13l-0.01,-0.13l-0.009,-0.131l-0.007,-0.13l-0.007,-0.13l-0.006,-0.131l-0.004,-0.129l-0.004,-0.13l-0.002,-0.129l-0.002,-0.13l0,-0.129l0.001,-0.129l0.001,-0.129l0.003,-0.129l0.004,-0.129l0.005,-0.128l0.006,-0.128l0.007,-0.128l0.008,-0.128l0.009,-0.128l0.01,-0.127l0.011,-0.127l0.013,-0.127l0.013,-0.127l0.014,-0.126l0.016,-0.127l0.016,-0.126l0.018,-0.126l0.019,-0.125l0.019,-0.126l0.021,-0.125l0.022,-0.125l0.022,-0.124l0.024,-0.124l0.025,-0.124l0.026,-0.124l0.027,-0.123l0.028,-0.124l0.029,-0.122l0.03,-0.123l0.031,-0.122l0.033,-0.121l0.033,-0.122l0.034,-0.121l0.036,-0.121l0.036,-0.12l0.037,-0.12l0.039,-0.12l0.039,-0.119l0.041,-0.119l0.041,-0.119l0.043,-0.118l0.043,-0.117l0.045,-0.118l0.045,-0.117l0.047,-0.116l0.048,-0.116l0.048,-0.117l0.05,-0.115l0.051,-0.114l0.051,-0.115l0.053,-0.114l0.054,-0.113l0.054,-0.113l0.056,-0.113l0.056,-0.112l0.058,-0.111l0.059,-0.112l0.059,-0.11l0.061,-0.11l0.061,-0.11l0.063,-0.109l0.064,-0.108l0.064,-0.109l0.065,-0.107l0.067,-0.107l0.067,-0.106l0.068,-0.106l0.07,-0.106l0.07,-0.104l0.071,-0.105l0.072,-0.104l0.073,-0.103l0.074,-0.102l0.075,-0.102l0.076,-0.102l0.076,-0.101l0.078,-0.1l0.078,-0.099l0.08,-0.1l0.08,-0.098l0.081,-0.098l0.083,-0.097l0.083,-0.097l0.083,-0.096l0.085,-0.095l0.086,-0.095l0.087,-0.094l0.087,-0.094l0.089,-0.093l0.088,-0.092l0.09,-0.091l0.092,-0.091l0.091,-0.09l0.092,-0.09l0.094,-0.089l0.094,-0.088l0.095,-0.088l0.097,-0.087l0.096,-0.086l0.098,-0.085l0.098,-0.085l0.099,-0.085l0.1,-0.083l0.101,-0.083l0.102,-0.082l0.102,-0.081l0.103,-0.081l0.105,-0.08l0.105,-0.08l0.105,-0.078l0.108,-0.079l0.108,-0.077l0.11,-0.077l0.111,-0.076l0.111,-0.075l0.112,-0.073l0.113,-0.071l0.114,-0.071l0.114,-0.069l0.115,-0.067l0.115,-0.067l0.116,-0.065l0.117,-0.063l0.117,-0.062l0.117,-0.061l0.119,-0.06l0.119,-0.058l0.119,-0.056l0.12,-0.055l0.121,-0.054l0.121,-0.053l0.121,-0.051l0.122,-0.049l0.123,-0.048l0.123,-0.047l0.123,-0.045l0.124,-0.044l0.124,-0.042l0.125,-0.041l0.125,-0.039l0.125,-0.037l0.126,-0.036l0.127,-0.035l0.127,-0.033l0.126,-0.031l0.128,-0.03l0.128,-0.028l0.129,-0.026l0.128,-0.025l0.129,-0.023l0.129,-0.021l0.13,-0.02l0.13,-0.018l0.131,-0.016l0.13,-0.014l0.131,-0.012l0.132,-0.011l0.132,-0.008l0.131,-0.007l0.132,-0.004l0.133,-0.003l0.133,0l0.132,0.001Zm-0.199,5.574l-0.046,0.001l-0.048,0.002l-0.05,0.002l-0.05,0.003l-0.049,0.004l-0.052,0.005l-0.053,0.006l-0.053,0.006l-0.054,0.008l-0.054,0.008l-0.056,0.009l-0.056,0.01l-0.056,0.011l-0.057,0.012l-0.058,0.012l-0.058,0.014l-0.059,0.014l-0.059,0.016l-0.06,0.016l-0.06,0.017l-0.061,0.018l-0.06,0.019l-0.061,0.02l-0.062,0.021l-0.061,0.022l-0.062,0.022l-0.062,0.024l-0.062,0.024l-0.062,0.025l-0.063,0.027l-0.062,0.027l-0.062,0.027l-0.063,0.029l-0.063,0.03l-0.062,0.03l-0.062,0.031l-0.062,0.032l-0.062,0.034l-0.062,0.033l-0.062,0.035l-0.061,0.035l-0.061,0.036l-0.061,0.037l-0.06,0.037l-0.061,0.039l-0.06,0.039l-0.059,0.039l-0.059,0.041l-0.059,0.041l-0.06,0.043l-0.07,0.051l-0.07,0.052l-0.069,0.053l-0.069,0.053l-0.069,0.053l-0.067,0.054l-0.067,0.054l-0.066,0.054l-0.066,0.055l-0.065,0.055l-0.064,0.056l-0.064,0.055l-0.063,0.056l-0.061,0.056l-0.062,0.057l-0.061,0.057l-0.06,0.057l-0.06,0.058l-0.059,0.058l-0.057,0.058l-0.058,0.059l-0.057,0.059l-0.056,0.058l-0.056,0.06l-0.055,0.06l-0.054,0.059l-0.053,0.061l-0.053,0.06l-0.053,0.061l-0.051,0.061l-0.051,0.062l-0.05,0.061l-0.05,0.062l-0.049,0.062l-0.049,0.063l-0.048,0.063l-0.047,0.063l-0.046,0.063l-0.046,0.064l-0.045,0.064l-0.045,0.064l-0.044,0.064l-0.043,0.065l-0.043,0.065l-0.042,0.066l-0.041,0.065l-0.041,0.066l-0.041,0.067l-0.039,0.066l-0.039,0.066l-0.038,0.067l-0.038,0.067l-0.037,0.068l-0.037,0.068l-0.036,0.068l-0.035,0.068l-0.035,0.068l-0.034,0.069l-0.033,0.07l-0.033,0.069l-0.032,0.069l-0.032,0.07l-0.031,0.071l-0.03,0.07l-0.03,0.07l-0.029,0.071l-0.028,0.072l-0.028,0.071l-0.027,0.072l-0.027,0.072l-0.026,0.073l-0.026,0.072l-0.024,0.073l-0.025,0.073l-0.023,0.074l-0.023,0.073l-0.022,0.075l-0.022,0.074l-0.021,0.074l-0.021,0.075l-0.02,0.075l-0.019,0.076l-0.018,0.075l-0.019,0.077l-0.017,0.076l-0.017,0.076l-0.016,0.077l-0.015,0.077l-0.015,0.077l-0.014,0.078l-0.014,0.078l-0.013,0.078l-0.012,0.079l-0.012,0.078l-0.011,0.079l-0.01,0.08l-0.01,0.079l-0.009,0.08l-0.008,0.08l-0.008,0.081l-0.007,0.081l-0.007,0.081l-0.006,0.081l-0.005,0.082l-0.004,0.081l-0.004,0.082l-0.003,0.075l0.016,-0.009l0.134,-0.071l0.133,-0.069l0.133,-0.068l0.132,-0.068l0.133,-0.067l0.131,-0.066l0.131,-0.065l0.131,-0.064l0.13,-0.063l0.13,-0.063l0.129,-0.061l0.13,-0.062l0.253,-0.119l0.253,-0.118l0.249,-0.115l0.247,-0.113l0.243,-0.111l0.477,-0.216l0.232,-0.106l0.229,-0.104l0.224,-0.103l0.22,-0.102l0.217,-0.102l0.104,-0.05l0.105,-0.05l0.104,-0.049l0.101,-0.05l0.101,-0.049l0.1,-0.05l0.098,-0.049l0.097,-0.049l0.095,-0.049l0.093,-0.048l0.093,-0.049l0.091,-0.048l0.089,-0.048l0.088,-0.049l0.086,-0.048l0.085,-0.048l0.083,-0.048l0.082,-0.047l0.079,-0.048l0.079,-0.048l0.077,-0.047l0.074,-0.047l0.073,-0.047l0.071,-0.047l0.07,-0.047l0.068,-0.047l0.066,-0.047l0.065,-0.046l0.062,-0.046l0.061,-0.046l0.059,-0.046l0.057,-0.046l0.056,-0.045l0.054,-0.045l0.056,-0.049l0.022,-0.019l0.025,-0.022l0.024,-0.022l0.024,-0.023l0.024,-0.022l0.023,-0.022l0.024,-0.022l0.022,-0.022l0.022,-0.022l0.021,-0.021l0.022,-0.023l0.021,-0.022l0.02,-0.021l0.021,-0.022l0.02,-0.022l0.019,-0.021l0.019,-0.022l0.019,-0.021l0.018,-0.021l0.018,-0.022l0.018,-0.021l0.017,-0.022l0.017,-0.021l0.017,-0.021l0.016,-0.022l0.016,-0.022l0.015,-0.02l0.016,-0.021l0.015,-0.022l0.015,-0.022l0.015,-0.022l0.014,-0.021l0.014,-0.021l0.014,-0.021l0.013,-0.022l0.013,-0.022l0.014,-0.022l0.012,-0.021l0.013,-0.022l0.012,-0.022l0.012,-0.022l0.012,-0.023l0.012,-0.022l0.011,-0.023l0.011,-0.022l0.012,-0.023l0.011,-0.024l0.01,-0.023l0.011,-0.023l0.01,-0.024l0.01,-0.024l0.01,-0.024l0.01,-0.025l0.01,-0.025l0.009,-0.024l0.009,-0.026l0.009,-0.025l0.009,-0.026l0.009,-0.027l0.008,-0.027l0.008,-0.026l0.009,-0.028l0.008,-0.028l0.007,-0.028l0.008,-0.029l0.008,-0.029l0.007,-0.029l0.007,-0.03l0.007,-0.032l0.006,-0.03l0.006,-0.031l0.007,-0.033l0.006,-0.032l0.005,-0.033l0.006,-0.034l0.005,-0.033l0.005,-0.036l0.005,-0.036l0.005,-0.035l0.004,-0.036l0.004,-0.037l0.004,-0.038l0.003,-0.039l0.003,-0.039l0.003,-0.039l0.003,-0.041l0.002,-0.041l0.002,-0.041l0.001,-0.041l0.002,-0.044l0,-0.044l0.001,-0.043l0,-0.045l0,-0.047l0,-0.044l-0.001,-0.044l-0.001,-0.043l-0.002,-0.043l-0.002,-0.042l-0.002,-0.041l-0.002,-0.041l-0.003,-0.04l-0.002,-0.039l-0.003,-0.038l-0.004,-0.038l-0.003,-0.037l-0.004,-0.037l-0.004,-0.035l-0.005,-0.035l-0.004,-0.034l-0.005,-0.034l-0.005,-0.033l-0.005,-0.033l-0.005,-0.031l-0.005,-0.031l-0.006,-0.03l-0.006,-0.03l-0.006,-0.03l-0.006,-0.028l-0.006,-0.028l-0.006,-0.026l-0.007,-0.027l-0.006,-0.025l-0.007,-0.026l-0.007,-0.025l-0.007,-0.024l-0.006,-0.023l-0.007,-0.022l-0.007,-0.023l-0.008,-0.022l-0.007,-0.021l-0.006,-0.02l-0.008,-0.02l-0.007,-0.02l-0.007,-0.018l-0.008,-0.019l-0.007,-0.018l-0.007,-0.017l-0.007,-0.016l-0.008,-0.017l-0.007,-0.015l-0.007,-0.016l-0.008,-0.015l-0.007,-0.015l-0.007,-0.013l-0.007,-0.014l-0.007,-0.013l-0.007,-0.013l-0.008,-0.012l-0.006,-0.012l-0.007,-0.011l-0.008,-0.012l-0.007,-0.011l-0.006,-0.01l-0.007,-0.01l-0.007,-0.01l-0.007,-0.01l-0.006,-0.009l-0.007,-0.009l-0.006,-0.008l-0.007,-0.009l-0.007,-0.009l-0.006,-0.007l-0.007,-0.009l-0.006,-0.007l-0.006,-0.007l-0.006,-0.007l-0.007,-0.007l-0.007,-0.008l-0.006,-0.006l-0.006,-0.006l-0.006,-0.006l-0.008,-0.007l-0.006,-0.006l-0.006,-0.006l-0.007,-0.006l-0.006,-0.005l-0.008,-0.007l-0.006,-0.005l-0.007,-0.006l-0.007,-0.005l-0.006,-0.005l-0.007,-0.005l-0.008,-0.007l-0.006,-0.004l-0.007,-0.005l-0.009,-0.006l-0.006,-0.004l-0.009,-0.006l-0.008,-0.005l-0.008,-0.005l-0.008,-0.005l-0.008,-0.005l-0.008,-0.004l-0.009,-0.005l-0.009,-0.005l-0.009,-0.005l-0.009,-0.005l-0.009,-0.005l-0.009,-0.004l-0.011,-0.005l-0.01,-0.005l-0.01,-0.004l-0.011,-0.005l-0.011,-0.005l-0.011,-0.004l-0.01,-0.004l-0.012,-0.005l-0.012,-0.005l-0.012,-0.004l-0.013,-0.005l-0.012,-0.004l-0.012,-0.004l-0.014,-0.004l-0.013,-0.004l-0.013,-0.004l-0.015,-0.005l-0.014,-0.003l-0.015,-0.004l-0.015,-0.004l-0.014,-0.004l-0.015,-0.003l-0.017,-0.004l-0.016,-0.004l-0.016,-0.003l-0.015,-0.003l-0.017,-0.003l-0.018,-0.003l-0.017,-0.003l-0.018,-0.003l-0.018,-0.003l-0.017,-0.002l-0.02,-0.003l-0.013,-0.001l-0.044,-0.005l-0.04,-0.004l-0.04,-0.003l-0.043,-0.003l-0.042,-0.002l-0.044,-0.001l-0.046,0l-0.046,0Z" style="fill:#ff0002;"/></svg>