<?xml version="1.0" encoding="UTF-8" standalone="no"?><!DOCTYPE svg PUBLIC "-//W3C//DTD SVG 1.1//EN" "http://www.w3.org/Graphics/SVG/1.1/DTD/svg11.dtd"><svg width="100%" height="100%" viewBox="0 0 57 94" version="1.1" xmlns="http://www.w3.org/2000/svg" xmlns:xlink="http://www.w3.org/1999/xlink" xml:space="preserve" xmlns:serif="http://www.serif.com/" style="fill-rule:evenodd;clip-rule:evenodd;stroke-linejoin:round;stroke-miterlimit:2;"><g><path d="M40.384,46.181l0.109,0.004l0.225,0.026l0.215,0.043l0.098,0.027l0.127,0.038l0.126,0.044l0.011,0.005l0.137,0.056l0.133,0.063l0.012,0.006l0.16,0.088l0.154,0.098l0.147,0.108l0.14,0.117l0.131,0.126l0.124,0.135l0.114,0.142l0.104,0.149l0.095,0.156l0.084,0.162l0.074,0.167l0.062,0.172l0.051,0.175l0.04,0.178l0.027,0.18l0.016,0.182l0.004,0.182l-0.008,0.182l-0.02,0.182l-0.004,0.024l0.017,0.078l0.023,0.117l0.014,0.069l0.013,0.073l0.014,0.084l0.013,0.084l0.014,0.113l0.013,0.097l0.011,0.097l0.011,0.098l0.011,0.096l0.01,0.097l0.01,0.097l0.009,0.097l0.009,0.096l0.008,0.097l0.007,0.097l0.008,0.096l0.006,0.096l0.007,0.096l0.006,0.097l0.005,0.099l0.01,0.188l0.008,0.192l0.006,0.191l0.005,0.19l0.003,0.19l0.002,0.19l0,0.189l0,0.189l-0.003,0.188l-0.003,0.188l-0.005,0.187l-0.006,0.187l-0.006,0.186l-0.008,0.186l-0.009,0.185l-0.01,0.184l-0.011,0.184l-0.012,0.184l-0.013,0.183l-0.013,0.182l-0.014,0.182l-0.015,0.181l-0.015,0.181l-0.016,0.18l-0.017,0.179l-0.017,0.179l-0.018,0.178l-0.018,0.177l-0.018,0.177l-0.019,0.178l-0.039,0.348l-0.039,0.347l-0.04,0.344l-0.041,0.341l-0.041,0.338l-0.08,0.665l-0.039,0.327l-0.038,0.324l-0.036,0.319l-0.035,0.317l-0.017,0.155l-0.016,0.155l-0.016,0.154l-0.016,0.168l-0.011,0.105l-0.015,0.12l-0.016,0.117l-0.018,0.117l-0.019,0.116l-0.02,0.117l-0.022,0.117l-0.023,0.119l-0.024,0.119l-0.025,0.121l-0.026,0.122l-0.027,0.124l-0.028,0.126l-0.03,0.128l-0.03,0.129l-0.031,0.132l-0.032,0.133l-0.034,0.137l-0.068,0.274l-0.072,0.284l-0.075,0.291l-0.077,0.299l-0.081,0.307l-0.166,0.63l-0.174,0.656l-0.088,0.335l-0.09,0.34l-0.09,0.345l-0.09,0.347l-0.09,0.351l-0.09,0.354l-0.089,0.355l-0.089,0.359l-0.043,0.177l-0.043,0.179l-0.043,0.18l-0.043,0.179l-0.042,0.18l-0.041,0.179l-0.041,0.179l-0.041,0.179l-0.04,0.178l-0.039,0.178l-0.038,0.178l-0.038,0.177l-0.037,0.177l-0.036,0.176l-0.036,0.175l-0.034,0.174l-0.034,0.174l-0.033,0.172l-0.032,0.171l-0.03,0.17l-0.03,0.169l-0.029,0.167l-0.027,0.167l-0.027,0.164l-0.025,0.163l-0.024,0.161l-0.023,0.16l-0.021,0.157l-0.02,0.155l-0.019,0.154l-0.018,0.151l-0.016,0.149l-0.015,0.146l-0.013,0.144l-0.012,0.141l-0.011,0.142l-0.004,0.065l-0.004,0.067l-0.004,0.067l-0.004,0.065l-0.003,0.065l-0.003,0.064l-0.002,0.064l-0.002,0.062l-0.002,0.062l-0.001,0.061l-0.001,0.059l-0.001,0.059l0,0.059l0,0.056l0,0.056l0.001,0.055l0.001,0.054l0.002,0.053l0.002,0.051l0.002,0.051l0.002,0.05l0.003,0.048l0.003,0.047l0.003,0.046l0.004,0.045l0.004,0.044l0.004,0.042l0.005,0.041l0.004,0.04l0.005,0.037l0.005,0.037l0.006,0.036l0.005,0.034l0.005,0.032l0.006,0.032l0.006,0.029l0.005,0.028l0.006,0.026l0.006,0.025l0.004,0.017l0.112,0.082l0.139,0.117l0.132,0.126l0.123,0.134l0.115,0.143l0.104,0.149l0.095,0.156l0.084,0.162l0.074,0.167l0.062,0.171l0.051,0.175l0.04,0.178l0.027,0.181l0.016,0.181l0.004,0.183l-0.008,0.182l-0.019,0.181l-0.032,0.18l-0.043,0.177l-0.055,0.174l-0.066,0.17l-0.077,0.165l-0.088,0.16l-0.098,0.154l-0.108,0.147l-0.117,0.14l-0.126,0.132l-0.135,0.123l-0.142,0.114l-0.149,0.105l-0.156,0.095l-0.162,0.084l-0.167,0.073l-0.171,0.063l-0.176,0.051l-0.178,0.039l-0.18,0.028l-0.182,0.016l-0.182,0.004l-0.182,-0.008l-0.182,-0.02l-0.179,-0.031l-0.177,-0.044l-0.174,-0.054l-0.17,-0.067l-0.166,-0.077l-0.078,-0.039l-0.11,-0.06l-0.108,-0.063l-0.106,-0.066l-0.103,-0.067l-0.102,-0.071l-0.098,-0.074l-0.097,-0.076l-0.094,-0.078l-0.091,-0.079l-0.088,-0.082l-0.086,-0.084l-0.083,-0.085l-0.079,-0.087l-0.077,-0.087l-0.074,-0.089l-0.071,-0.09l-0.068,-0.09l-0.066,-0.091l-0.064,-0.093l-0.059,-0.092l-0.058,-0.092l-0.055,-0.093l-0.053,-0.093l-0.05,-0.094l-0.048,-0.093l-0.046,-0.094l-0.044,-0.094l-0.042,-0.093l-0.039,-0.093l-0.038,-0.093l-0.036,-0.094l-0.034,-0.093l-0.033,-0.093l-0.03,-0.093l-0.03,-0.092l-0.027,-0.093l-0.027,-0.092l-0.025,-0.093l-0.023,-0.092l-0.022,-0.092l-0.021,-0.092l-0.02,-0.091l-0.019,-0.092l-0.017,-0.092l-0.017,-0.091l-0.015,-0.092l-0.015,-0.091l-0.013,-0.091l-0.013,-0.091l-0.011,-0.092l-0.011,-0.091l-0.01,-0.091l-0.009,-0.092l-0.008,-0.091l-0.008,-0.091l-0.006,-0.091l-0.006,-0.092l-0.006,-0.091l-0.004,-0.091l-0.004,-0.092l-0.003,-0.092l-0.003,-0.092l-0.002,-0.091l-0.001,-0.092l-0.001,-0.092l0,-0.092l0,-0.092l0.001,-0.092l0.002,-0.093l0.002,-0.092l0.002,-0.093l0.003,-0.093l0.004,-0.093l0.004,-0.093l0.005,-0.093l0.005,-0.094l0.005,-0.094l0.006,-0.093l0.007,-0.097l0.014,-0.185l0.016,-0.188l0.017,-0.19l0.019,-0.19l0.021,-0.19l0.022,-0.191l0.024,-0.191l0.025,-0.192l0.026,-0.193l0.028,-0.193l0.028,-0.193l0.03,-0.194l0.031,-0.194l0.033,-0.194l0.033,-0.195l0.034,-0.195l0.036,-0.195l0.036,-0.196l0.037,-0.195l0.038,-0.196l0.039,-0.195l0.039,-0.196l0.041,-0.195l0.041,-0.196l0.041,-0.195l0.043,-0.195l0.042,-0.195l0.044,-0.194l0.044,-0.194l0.044,-0.194l0.045,-0.193l0.045,-0.193l0.046,-0.192l0.045,-0.191l0.046,-0.191l0.047,-0.191l0.093,-0.376l0.094,-0.373l0.093,-0.37l0.094,-0.364l0.093,-0.359l0.092,-0.353l0.092,-0.347l0.089,-0.34l0.174,-0.656l0.165,-0.624l0.077,-0.296l0.075,-0.286l0.07,-0.274l0.067,-0.263l0.062,-0.251l0.029,-0.118l0.028,-0.116l0.027,-0.112l0.025,-0.108l0.024,-0.105l0.022,-0.099l0.021,-0.096l0.02,-0.091l0.017,-0.086l0.017,-0.081l0.014,-0.075l0.013,-0.069l0.011,-0.063l0.009,-0.056l0.007,-0.048l0.006,-0.041l0.004,-0.031l0.004,-0.037l0.015,-0.156l0.017,-0.17l0.018,-0.17l0.018,-0.171l0.037,-0.337l0.039,-0.338l0.04,-0.337l0.04,-0.336l0.08,-0.669l0.04,-0.334l0.04,-0.331l0.039,-0.331l0.037,-0.329l0.036,-0.329l0.018,-0.161l0.017,-0.163l0.016,-0.162l0.016,-0.162l0.016,-0.161l0.015,-0.161l0.014,-0.16l0.014,-0.16l0.013,-0.159l0.012,-0.159l0.011,-0.157l0.011,-0.158l0.01,-0.156l0.009,-0.157l0.009,-0.155l0.007,-0.155l0.007,-0.154l0.006,-0.153l0.004,-0.153l0.004,-0.152l0.003,-0.151l0.002,-0.15l0,-0.15l0,-0.148l-0.001,-0.148l-0.003,-0.148l-0.004,-0.146l-0.004,-0.145l-0.006,-0.144l-0.008,-0.147l-0.004,-0.068l-0.004,-0.071l-0.005,-0.071l-0.005,-0.071l-0.005,-0.07l-0.006,-0.07l-0.005,-0.07l-0.007,-0.07l-0.006,-0.07l-0.007,-0.069l-0.007,-0.069l-0.008,-0.069l-0.008,-0.068l-0.008,-0.068l-0.008,-0.068l-0.005,-0.033l-0.002,-0.012l-0.016,-0.078l-0.021,-0.102l-0.026,-0.124l-0.027,-0.136l-0.016,-0.079l-0.015,-0.08l-0.014,-0.082l-0.015,-0.087l-0.015,-0.093l-0.014,-0.098l-0.013,-0.105l-0.012,-0.115l-0.009,-0.115l-0.005,-0.081l-0.003,-0.075l-0.001,-0.083l0.001,-0.089l0.003,-0.1l0.008,-0.115l0.013,-0.127l0.021,-0.147l0.035,-0.171l0.053,-0.201l0.039,-0.112l0.046,-0.121l0.051,-0.119l0.005,-0.01l0.073,-0.148l0.082,-0.143l0.005,-0.009l0.071,-0.11l0.075,-0.106l0.08,-0.102l0.006,-0.007l0.117,-0.133l0.125,-0.125l0.003,-0.003l0.096,-0.087l0.1,-0.082l0.003,-0.002l0.104,-0.078l0.108,-0.072l0.004,-0.003l0.117,-0.071l0.121,-0.065l0.004,-0.002l0.137,-0.066l0.141,-0.057l0.004,-0.002l0.142,-0.049l0.144,-0.042l0.004,-0.001l0.126,-0.03l0.127,-0.023l0.004,-0.001l0.138,-0.019l0.138,-0.012l0.004,0l0.142,-0.005l0.142,0.002Zm-0.956,5.441l0.041,0.011l-0.067,-0.021l0.026,0.01Zm-0.251,-0.095l0.147,0.056l-0.102,-0.04l-0.165,-0.077l0.12,0.061Z" style="fill:#69cd23;"/><path d="M41.753,45.926l0.123,0.002l0.123,0.004l0.122,0.004l0.122,0.006l0.122,0.007l0.122,0.008l0.122,0.009l0.121,0.011l0.122,0.011l0.121,0.013l0.121,0.013l0.121,0.015l0.121,0.016l0.12,0.017l0.121,0.018l0.119,0.019l0.12,0.02l0.12,0.021l0.119,0.022l0.12,0.023l0.119,0.024l0.118,0.025l0.119,0.026l0.118,0.027l0.118,0.028l0.118,0.029l0.117,0.03l0.117,0.03l0.117,0.032l0.117,0.033l0.117,0.033l0.115,0.034l0.116,0.035l0.116,0.036l0.115,0.037l0.115,0.038l0.115,0.038l0.114,0.04l0.114,0.04l0.114,0.041l0.113,0.042l0.114,0.043l0.112,0.043l0.113,0.045l0.112,0.045l0.112,0.045l0.111,0.047l0.111,0.047l0.111,0.048l0.111,0.049l0.11,0.05l0.11,0.05l0.109,0.052l0.109,0.051l0.109,0.053l0.108,0.053l0.108,0.054l0.108,0.055l0.107,0.055l0.106,0.056l0.107,0.057l0.106,0.058l0.105,0.058l0.106,0.058l0.104,0.06l0.105,0.06l0.103,0.061l0.104,0.061l0.103,0.062l0.102,0.063l0.103,0.063l0.102,0.064l0.101,0.065l0.1,0.065l0.101,0.066l0.1,0.066l0.099,0.067l0.099,0.068l0.098,0.068l0.099,0.069l0.097,0.07l0.097,0.07l0.097,0.07l0.095,0.072l0.096,0.071l0.095,0.072l0.094,0.074l0.094,0.073l0.094,0.074l0.092,0.075l0.093,0.075l0.092,0.076l0.091,0.076l0.09,0.077l0.09,0.077l0.09,0.078l0.089,0.079l0.088,0.078l0.088,0.08l0.087,0.08l0.087,0.08l0.086,0.082l0.085,0.081l0.085,0.082l0.084,0.083l0.083,0.083l0.083,0.084l0.083,0.084l0.081,0.085l0.081,0.085l0.08,0.085l0.08,0.086l0.079,0.087l0.078,0.087l0.077,0.088l0.077,0.088l0.076,0.089l0.076,0.089l0.074,0.09l0.074,0.09l0.073,0.091l0.073,0.091l0.071,0.092l0.071,0.092l0.071,0.093l0.069,0.093l0.069,0.093l0.067,0.095l0.067,0.094l0.067,0.095l0.065,0.096l0.065,0.096l0.063,0.097l0.063,0.097l0.062,0.098l0.061,0.098l0.061,0.098l0.059,0.099l0.058,0.1l0.058,0.1l0.057,0.101l0.055,0.101l0.055,0.101l0.054,0.103l0.052,0.102l0.052,0.103l0.051,0.104l0.05,0.104l0.049,0.105l0.047,0.105l0.047,0.106l0.045,0.106l0.045,0.107l0.043,0.107l0.042,0.108l0.041,0.108l0.04,0.109l0.039,0.109l0.038,0.11l0.036,0.11l0.035,0.111l0.034,0.111l0.033,0.112l0.031,0.112l0.03,0.113l0.028,0.113l0.028,0.114l0.026,0.115l0.024,0.114l0.023,0.115l0.022,0.116l0.02,0.116l0.018,0.117l0.018,0.116l0.015,0.118l0.014,0.118l0.013,0.117l0.01,0.119l0.01,0.119l0.007,0.119l0.006,0.12l0.004,0.12l0.003,0.12l0,0.12l-0.001,0.121l-0.003,0.12l-0.005,0.122l-0.006,0.122l-0.009,0.121l-0.01,0.121l-0.012,0.122l-0.014,0.122l-0.016,0.122l-0.018,0.121l-0.02,0.122l-0.022,0.122l-0.024,0.121l-0.026,0.122l-0.028,0.121l-0.03,0.121l-0.032,0.121l-0.034,0.121l-0.036,0.12l-0.039,0.12l-0.04,0.119l-0.042,0.119l-0.044,0.119l-0.047,0.118l-0.048,0.118l-0.05,0.117l-0.053,0.116l-0.054,0.116l-0.056,0.115l-0.059,0.115l-0.06,0.114l-0.062,0.112l-0.064,0.113l-0.066,0.111l-0.068,0.11l-0.07,0.11l-0.072,0.109l-0.074,0.108l-0.075,0.107l-0.078,0.106l-0.079,0.106l-0.081,0.103l-0.082,0.103l-0.085,0.102l-0.086,0.102l-0.088,0.1l-0.09,0.099l-0.091,0.098l-0.093,0.097l-0.095,0.096l-0.096,0.095l-0.097,0.093l-0.1,0.093l-0.101,0.092l-0.103,0.091l-0.104,0.089l-0.106,0.089l-0.107,0.087l-0.108,0.086l-0.111,0.086l-0.055,0.041l-0.055,0.04l-0.055,0.04l-0.055,0.038l-0.054,0.037l-0.059,0.04l-0.103,0.067l-0.109,0.068l-0.108,0.066l-0.11,0.064l-0.11,0.062l-0.111,0.061l-0.111,0.059l-0.113,0.059l-0.114,0.058l-0.114,0.057l-0.117,0.056l-0.117,0.055l-0.118,0.055l-0.12,0.054l-0.121,0.054l-0.122,0.054l-0.124,0.053l-0.126,0.053l-0.126,0.053l-0.128,0.052l-0.129,0.052l-0.13,0.051l-0.131,0.052l-0.133,0.051l-0.134,0.051l-0.135,0.051l-0.136,0.05l-0.137,0.05l-0.138,0.05l-0.139,0.05l-0.14,0.049l-0.141,0.05l-0.141,0.049l-0.143,0.048l-0.143,0.049l-0.144,0.048l-0.144,0.048l-0.146,0.048l-0.145,0.047l-0.146,0.047l-0.147,0.047l-0.147,0.046l-0.147,0.046l-0.147,0.046l-0.15,0.046l-0.294,0.089l-0.296,0.089l-0.296,0.087l-0.296,0.085l-0.294,0.083l-0.292,0.082l-0.291,0.079l-0.288,0.078l-0.285,0.075l-0.282,0.073l-0.277,0.071l-0.274,0.068l-0.269,0.066l-0.264,0.064l-0.259,0.06l-0.252,0.058l-0.247,0.055l-0.24,0.053l-0.231,0.048l-0.116,0.024l-0.113,0.023l-0.11,0.021l-0.109,0.021l-0.107,0.021l-0.106,0.019l-0.103,0.018l-0.102,0.018l-0.101,0.017l-0.099,0.016l-0.097,0.015l-0.096,0.015l-0.096,0.013l-0.094,0.013l-0.093,0.011l-0.093,0.011l-0.095,0.01l-0.095,0.008l-0.097,0.008l-0.099,0.005l-0.104,0.005l-0.113,0.002l-0.12,-0.001l-0.133,-0.005l-0.137,-0.01l-0.102,-0.012l-0.093,-0.013l-0.106,-0.018l-0.118,-0.025l-0.128,-0.032l-0.15,-0.045l-0.173,-0.063l-0.193,-0.086l-0.103,-0.055l-0.115,-0.066l-0.112,-0.071l-0.007,-0.005l-0.081,-0.056l-0.08,-0.06l-0.077,-0.062l-0.005,-0.005l-0.094,-0.081l-0.089,-0.086l-0.086,-0.09l-0.005,-0.005l-0.071,-0.081l-0.068,-0.084l-0.065,-0.086l-0.061,-0.089l-0.004,-0.006l-0.062,-0.097l-0.057,-0.1l-0.054,-0.102l-0.049,-0.104l-0.003,-0.006l-0.047,-0.112l-0.042,-0.115l-0.038,-0.116l-0.032,-0.118l-0.001,-0.006l-0.027,-0.12l-0.022,-0.121l-0.017,-0.122l-0.011,-0.122l0,-0.007l-0.006,-0.114l-0.001,-0.114l0.004,-0.114l0.009,-0.113l0,-0.007l0.016,-0.129l0.021,-0.128l0.028,-0.127l0.001,-0.007l0.031,-0.116l0.035,-0.114l0.04,-0.113l0.003,-0.007l0.036,-0.091l0.04,-0.09l0.043,-0.089l0.059,-0.115l0.124,-0.2l0.119,-0.163l0.112,-0.134l0.1,-0.108l0.093,-0.092l0.087,-0.079l0.078,-0.066l0.074,-0.06l0.069,-0.052l0.064,-0.046l0.061,-0.043l0.067,-0.044l0.067,-0.043l0.122,-0.072l0.124,-0.066l0.128,-0.06l0.131,-0.053l0.134,-0.046l0.135,-0.04l0.138,-0.033l0.138,-0.025l0.14,-0.019l0.141,-0.012l0.141,-0.004l0.142,0.003l0.14,0.01l0.141,0.017l0.139,0.024l0.138,0.031l0.115,0.032l0.021,-0.004l0.087,-0.016l0.089,-0.018l0.092,-0.019l0.093,-0.019l0.199,-0.041l0.207,-0.045l0.215,-0.048l0.223,-0.051l0.231,-0.055l0.237,-0.056l0.243,-0.06l0.249,-0.062l0.253,-0.065l0.258,-0.067l0.261,-0.069l0.265,-0.071l0.266,-0.073l0.269,-0.075l0.27,-0.077l0.271,-0.078l0.271,-0.079l0.271,-0.081l0.272,-0.082l0.132,-0.041l0.135,-0.042l0.133,-0.042l0.133,-0.042l0.132,-0.042l0.131,-0.042l0.131,-0.043l0.129,-0.042l0.129,-0.043l0.128,-0.043l0.126,-0.042l0.125,-0.043l0.125,-0.043l0.122,-0.043l0.121,-0.043l0.12,-0.043l0.118,-0.042l0.116,-0.043l0.115,-0.043l0.113,-0.042l0.11,-0.042l0.109,-0.042l0.107,-0.042l0.104,-0.041l0.102,-0.041l0.099,-0.041l0.097,-0.04l0.094,-0.04l0.092,-0.039l0.088,-0.039l0.086,-0.038l0.082,-0.037l0.079,-0.037l0.076,-0.036l0.072,-0.034l0.068,-0.034l0.064,-0.032l0.059,-0.032l0.056,-0.029l0.051,-0.028l0.045,-0.026l0.041,-0.024l0.036,-0.021l0.029,-0.019l0.03,-0.019l0.004,-0.003l0.008,-0.005l0.006,-0.004l0.004,-0.003l0.003,-0.002l0,-0.001l0.054,-0.041l0.053,-0.043l0.052,-0.041l0.049,-0.042l0.048,-0.041l0.047,-0.041l0.045,-0.041l0.043,-0.04l0.042,-0.041l0.041,-0.04l0.039,-0.04l0.038,-0.039l0.036,-0.039l0.035,-0.039l0.034,-0.038l0.032,-0.038l0.031,-0.038l0.03,-0.037l0.029,-0.038l0.028,-0.036l0.026,-0.037l0.026,-0.036l0.025,-0.036l0.023,-0.035l0.022,-0.035l0.022,-0.035l0.021,-0.036l0.019,-0.034l0.02,-0.035l0.018,-0.034l0.017,-0.033l0.016,-0.034l0.016,-0.034l0.015,-0.033l0.014,-0.034l0.014,-0.033l0.013,-0.033l0.012,-0.033l0.012,-0.033l0.011,-0.033l0.011,-0.033l0.01,-0.034l0.009,-0.034l0.009,-0.033l0.008,-0.033l0.008,-0.034l0.008,-0.034l0.006,-0.034l0.006,-0.034l0.006,-0.035l0.005,-0.035l0.005,-0.035l0.004,-0.035l0.004,-0.036l0.003,-0.037l0.002,-0.037l0.002,-0.036l0.002,-0.037l0.001,-0.038l0,-0.039l0,-0.038l-0.001,-0.04l-0.001,-0.039l-0.002,-0.04l-0.003,-0.04l-0.003,-0.041l-0.004,-0.042l-0.004,-0.042l-0.005,-0.042l-0.006,-0.043l-0.006,-0.044l-0.007,-0.044l-0.008,-0.044l-0.008,-0.045l-0.01,-0.046l-0.009,-0.046l-0.011,-0.046l-0.011,-0.047l-0.012,-0.047l-0.013,-0.048l-0.013,-0.049l-0.014,-0.048l-0.015,-0.049l-0.016,-0.05l-0.017,-0.05l-0.017,-0.05l-0.018,-0.051l-0.019,-0.051l-0.019,-0.052l-0.021,-0.052l-0.021,-0.053l-0.022,-0.052l-0.023,-0.053l-0.023,-0.053l-0.025,-0.055l-0.025,-0.054l-0.025,-0.054l-0.027,-0.054l-0.028,-0.055l-0.028,-0.055l-0.029,-0.056l-0.03,-0.056l-0.031,-0.055l-0.032,-0.056l-0.032,-0.056l-0.033,-0.057l-0.034,-0.057l-0.035,-0.056l-0.035,-0.057l-0.036,-0.057l-0.037,-0.057l-0.038,-0.057l-0.038,-0.058l-0.04,-0.057l-0.04,-0.058l-0.04,-0.057l-0.042,-0.058l-0.042,-0.058l-0.043,-0.058l-0.044,-0.057l-0.044,-0.058l-0.045,-0.058l-0.046,-0.057l-0.047,-0.058l-0.047,-0.057l-0.048,-0.058l-0.049,-0.058l-0.049,-0.057l-0.05,-0.058l-0.05,-0.057l-0.052,-0.057l-0.052,-0.057l-0.052,-0.057l-0.054,-0.057l-0.053,-0.057l-0.055,-0.056l-0.055,-0.057l-0.056,-0.056l-0.056,-0.056l-0.057,-0.056l-0.057,-0.055l-0.058,-0.056l-0.059,-0.055l-0.059,-0.055l-0.059,-0.055l-0.061,-0.054l-0.061,-0.055l-0.061,-0.054l-0.061,-0.053l-0.063,-0.054l-0.063,-0.053l-0.063,-0.053l-0.063,-0.052l-0.065,-0.053l-0.064,-0.052l-0.066,-0.051l-0.065,-0.052l-0.066,-0.05l-0.066,-0.051l-0.067,-0.051l-0.068,-0.049l-0.067,-0.05l-0.068,-0.049l-0.069,-0.049l-0.068,-0.048l-0.07,-0.048l-0.069,-0.048l-0.07,-0.047l-0.07,-0.046l-0.071,-0.047l-0.071,-0.046l-0.071,-0.045l-0.071,-0.045l-0.072,-0.044l-0.072,-0.044l-0.072,-0.044l-0.073,-0.043l-0.073,-0.043l-0.073,-0.042l-0.073,-0.041l-0.073,-0.041l-0.074,-0.041l-0.074,-0.04l-0.074,-0.039l-0.074,-0.04l-0.075,-0.038l-0.075,-0.038l-0.075,-0.038l-0.074,-0.036l-0.076,-0.037l-0.075,-0.035l-0.075,-0.035l-0.075,-0.035l-0.076,-0.034l-0.075,-0.034l-0.076,-0.032l-0.076,-0.033l-0.076,-0.031l-0.075,-0.031l-0.076,-0.031l-0.076,-0.03l-0.076,-0.029l-0.076,-0.029l-0.076,-0.028l-0.076,-0.027l-0.075,-0.027l-0.076,-0.026l-0.076,-0.025l-0.076,-0.025l-0.075,-0.024l-0.075,-0.024l-0.076,-0.023l-0.076,-0.022l-0.075,-0.022l-0.074,-0.021l-0.075,-0.02l-0.076,-0.019l-0.074,-0.019l-0.075,-0.019l-0.074,-0.017l-0.074,-0.017l-0.074,-0.016l-0.074,-0.016l-0.074,-0.015l-0.073,-0.014l-0.073,-0.013l-0.072,-0.013l-0.073,-0.012l-0.073,-0.012l-0.071,-0.011l-0.073,-0.01l-0.071,-0.009l-0.071,-0.009l-0.071,-0.008l-0.071,-0.007l-0.07,-0.007l-0.07,-0.006l-0.069,-0.005l-0.069,-0.005l-0.069,-0.004l-0.069,-0.003l-0.068,-0.002l-0.068,-0.002l-0.067,-0.001l-0.067,-0.001l-0.067,0l-0.065,0.001l-0.066,0.001l-0.066,0.003l-0.064,0.002l-0.065,0.004l-0.064,0.004l-0.063,0.005l-0.064,0.005l-0.062,0.006l-0.078,0.009l-0.14,0.011l-0.141,0.005l-0.142,-0.003l-0.141,-0.01l-0.14,-0.017l-0.139,-0.024l-0.138,-0.031l-0.136,-0.038l-0.134,-0.044l-0.131,-0.052l-0.129,-0.058l-0.125,-0.065l-0.123,-0.071l-0.118,-0.077l-0.114,-0.082l-0.11,-0.089l-0.106,-0.094l-0.1,-0.099l-0.096,-0.104l-0.09,-0.109l-0.084,-0.113l-0.079,-0.118l-0.072,-0.121l-0.066,-0.125l-0.06,-0.128l-0.053,-0.131l-0.047,-0.133l-0.039,-0.135l-0.033,-0.138l-0.026,-0.139l-0.019,-0.14l-0.012,-0.14l-0.004,-0.142l0.003,-0.141l0.009,-0.141l0.017,-0.14l0.024,-0.139l0.031,-0.138l0.038,-0.136l0.045,-0.134l0.052,-0.131l0.058,-0.129l0.064,-0.126l0.071,-0.122l0.077,-0.118l0.083,-0.115l0.089,-0.11l0.094,-0.105l0.099,-0.101l0.104,-0.095l0.109,-0.09l0.113,-0.084l0.118,-0.079l0.121,-0.072l0.125,-0.066l0.128,-0.06l0.13,-0.053l0.134,-0.047l0.135,-0.04l0.138,-0.032l0.138,-0.026l0.14,-0.019l0.109,-0.012l0.123,-0.012l0.124,-0.01l0.124,-0.01l0.123,-0.008l0.122,-0.006l0.124,-0.006l0.123,-0.004l0.123,-0.002l0.123,-0.002l0.123,0l0.122,0.001Z" style="fill:#69cd23;"/></g><g><path d="M9.254,10.874l0.153,0.015l0.152,0.023l0.15,0.032l0.148,0.04l0.146,0.048l0.143,0.056l0.14,0.064l0.136,0.072l0.132,0.079l0.127,0.086l0.122,0.093l0.117,0.099l0.112,0.106l0.105,0.112l0.099,0.117l0.093,0.123l0.085,0.127l0.079,0.133l0.036,0.066l0.047,0.087l0.046,0.086l0.045,0.088l0.045,0.091l0.046,0.093l0.047,0.097l0.048,0.1l0.049,0.104l0.05,0.107l0.052,0.112l0.054,0.117l0.109,0.241l0.116,0.26l0.121,0.275l0.127,0.29l0.132,0.305l0.137,0.32l0.142,0.333l0.146,0.347l0.15,0.359l0.155,0.371l0.158,0.383l0.161,0.393l0.165,0.403l0.167,0.412l0.17,0.421l0.173,0.429l0.174,0.436l0.175,0.442l0.177,0.448l0.178,0.453l0.179,0.458l0.179,0.461l0.179,0.464l0.178,0.466l0.179,0.468l0.177,0.469l0.176,0.469l0.175,0.468l0.173,0.467l0.171,0.465l0.169,0.462l0.166,0.459l0.163,0.455l0.081,0.227l0.079,0.224l0.079,0.223l0.077,0.222l0.077,0.221l0.076,0.218l0.074,0.217l0.074,0.216l0.073,0.214l0.071,0.211l0.07,0.21l0.069,0.208l0.068,0.205l0.066,0.204l0.066,0.201l0.063,0.199l0.063,0.197l0.061,0.194l0.059,0.191l0.058,0.189l0.057,0.187l0.055,0.184l0.053,0.181l0.052,0.178l0.05,0.176l0.049,0.173l0.047,0.17l0.045,0.168l0.043,0.165l0.042,0.161l0.04,0.16l0.037,0.157l0.037,0.154l0.034,0.153l0.032,0.15l0.031,0.148l0.028,0.147l0.025,0.141l0.013,0.077l0.012,0.072l0.011,0.073l0.011,0.073l0.01,0.073l0.009,0.073l0.009,0.073l0.008,0.075l0.007,0.075l0.007,0.077l0.005,0.077l0.005,0.08l0.003,0.081l0.003,0.083l0.001,0.086l-0.001,0.089l-0.003,0.093l-0.005,0.097l-0.008,0.103l-0.011,0.108l-0.016,0.115l-0.021,0.122l-0.027,0.132l-0.02,0.08l-0.042,0.148l-0.05,0.146l-0.057,0.142l-0.066,0.139l-0.073,0.135l-0.08,0.131l-0.088,0.126l-0.094,0.122l-0.101,0.116l-0.107,0.11l-0.112,0.104l-0.119,0.098l-0.124,0.091l-0.128,0.084l-0.133,0.077l-0.137,0.069l-0.141,0.062l-0.144,0.054l-0.146,0.046l-0.149,0.038l-0.151,0.03l-0.152,0.021l-0.153,0.013l-0.154,0.004l-0.153,-0.004l-0.153,-0.013l-0.152,-0.02l-0.151,-0.03l-0.149,-0.037l-0.147,-0.046l-0.144,-0.054l-0.14,-0.061l-0.138,-0.07l-0.133,-0.076l-0.128,-0.084l-0.124,-0.091l-0.119,-0.098l-0.113,-0.104l-0.107,-0.11l-0.101,-0.115l-0.095,-0.121l-0.087,-0.127l-0.081,-0.13l-0.073,-0.135l-0.066,-0.139l-0.058,-0.143l-0.05,-0.145l-0.042,-0.148l-0.033,-0.149l-0.026,-0.152l-0.017,-0.153l-0.009,-0.153l0,-0.154l0.009,-0.153l0.009,-0.082l-0.003,-0.018l-0.004,-0.026l-0.004,-0.03l-0.005,-0.032l-0.005,-0.029l-0.015,-0.079l-0.016,-0.083l-0.018,-0.09l-0.021,-0.098l-0.023,-0.104l-0.026,-0.11l-0.028,-0.117l-0.031,-0.122l-0.033,-0.127l-0.035,-0.133l-0.037,-0.137l-0.039,-0.143l-0.041,-0.147l-0.043,-0.151l-0.045,-0.155l-0.047,-0.16l-0.049,-0.163l-0.051,-0.167l-0.052,-0.171l-0.055,-0.174l-0.055,-0.178l-0.058,-0.181l-0.059,-0.184l-0.06,-0.187l-0.062,-0.19l-0.064,-0.193l-0.065,-0.195l-0.066,-0.198l-0.067,-0.2l-0.069,-0.203l-0.07,-0.204l-0.071,-0.207l-0.073,-0.209l-0.073,-0.211l-0.075,-0.213l-0.075,-0.214l-0.077,-0.216l-0.077,-0.217l-0.157,-0.44l-0.161,-0.444l-0.163,-0.449l-0.167,-0.451l-0.168,-0.454l-0.17,-0.456l-0.172,-0.457l-0.173,-0.457l-0.174,-0.457l-0.175,-0.456l-0.175,-0.453l-0.175,-0.451l-0.174,-0.447l-0.174,-0.444l-0.173,-0.438l-0.172,-0.432l-0.17,-0.426l-0.168,-0.419l-0.166,-0.41l-0.163,-0.402l-0.16,-0.393l-0.157,-0.382l-0.154,-0.371l-0.149,-0.359l-0.146,-0.347l-0.14,-0.333l-0.136,-0.319l-0.13,-0.304l-0.124,-0.287l-0.119,-0.271l-0.111,-0.253l-0.105,-0.234l-0.098,-0.216l-0.044,-0.097l-0.043,-0.093l-0.041,-0.088l-0.039,-0.081l-0.036,-0.075l-0.033,-0.068l-0.03,-0.061l-0.026,-0.053l-0.023,-0.044l-0.018,-0.035l-0.013,-0.024l-0.018,-0.032l-0.071,-0.137l-0.063,-0.139l-0.056,-0.144l-0.047,-0.146l-0.04,-0.148l-0.031,-0.151l-0.023,-0.152l-0.014,-0.152l-0.006,-0.154l0.002,-0.154l0.011,-0.153l0.019,-0.152l0.028,-0.151l0.036,-0.15l0.044,-0.147l0.052,-0.144l0.06,-0.142l0.068,-0.138l0.075,-0.133l0.083,-0.13l0.089,-0.125l0.096,-0.12l0.103,-0.114l0.109,-0.108l0.114,-0.103l0.121,-0.095l0.125,-0.089l0.13,-0.082l0.134,-0.075l0.138,-0.067l0.142,-0.06l0.144,-0.051l0.148,-0.044l0.149,-0.035l0.151,-0.027l0.153,-0.019l0.153,-0.01l0.154,-0.002l0.153,0.007Zm4.849,23.827l-0.013,0.065l0.022,-0.099l-0.009,0.034Z" style="fill:#69cd23;"/><path d="M25.907,17.115l0.193,0.023l0.191,0.037l0.188,0.05l0.184,0.063l0.179,0.076l0.174,0.088l0.167,0.1l0.159,0.111l0.152,0.123l0.142,0.132l0.133,0.142l0.123,0.151l0.112,0.159l0.1,0.167l0.089,0.173l0.076,0.179l0.063,0.184l0.051,0.188l0.037,0.191l0.024,0.193l0.011,0.194l-0.003,0.195l-0.017,0.194l-0.03,0.192l-0.044,0.19l-0.056,0.186l-0.049,0.141l-0.051,0.148l-0.052,0.148l-0.053,0.147l-0.054,0.147l-0.054,0.147l-0.055,0.147l-0.055,0.146l-0.056,0.147l-0.057,0.146l-0.058,0.146l-0.058,0.146l-0.059,0.146l-0.059,0.145l-0.06,0.145l-0.061,0.145l-0.061,0.145l-0.062,0.145l-0.062,0.145l-0.063,0.144l-0.064,0.145l-0.064,0.144l-0.064,0.144l-0.065,0.144l-0.066,0.143l-0.067,0.144l-0.067,0.144l-0.067,0.143l-0.068,0.143l-0.068,0.143l-0.069,0.143l-0.07,0.142l-0.07,0.143l-0.07,0.142l-0.071,0.142l-0.071,0.142l-0.072,0.142l-0.072,0.142l-0.073,0.142l-0.074,0.141l-0.073,0.142l-0.074,0.141l-0.075,0.141l-0.075,0.141l-0.075,0.141l-0.076,0.141l-0.076,0.14l-0.077,0.141l-0.077,0.14l-0.078,0.142l-0.155,0.279l-0.157,0.279l-0.159,0.28l-0.16,0.279l-0.162,0.278l-0.162,0.278l-0.164,0.278l-0.166,0.277l-0.166,0.277l-0.167,0.276l-0.169,0.276l-0.169,0.276l-0.171,0.276l-0.171,0.275l-0.172,0.274l-0.173,0.275l-0.174,0.274l-0.174,0.274l-0.175,0.273l-0.176,0.273l-0.176,0.273l-0.177,0.273l-0.177,0.272l-0.178,0.273l-0.178,0.271l-0.178,0.272l-0.18,0.272l-0.357,0.541l-0.359,0.542l-0.359,0.54l-0.359,0.539l-0.359,0.539l-0.358,0.538l-0.356,0.537l-0.355,0.537l-0.354,0.536l-0.175,0.267l-0.175,0.268l-0.175,0.267l-0.173,0.267l-0.173,0.267l-0.173,0.267l-0.171,0.267l-0.17,0.266l-0.17,0.267l-0.168,0.266l-0.168,0.266l-0.166,0.266l-0.166,0.266l-0.164,0.265l-0.163,0.266l-0.161,0.265l-0.161,0.265l-0.159,0.265l-0.158,0.265l-0.156,0.265l-0.155,0.264l-0.153,0.265l-0.152,0.264l-0.15,0.264l-0.149,0.264l-0.147,0.265l-0.072,0.131l-0.073,0.132l-0.072,0.131l-0.071,0.132l-0.071,0.131l-0.071,0.132l-0.07,0.132l-0.069,0.131l-0.07,0.131l-0.068,0.132l-0.068,0.131l-0.068,0.132l-0.067,0.131l-0.067,0.131l-0.066,0.131l-0.066,0.131l-0.065,0.132l-0.065,0.131l-0.064,0.131l-0.064,0.131l-0.063,0.131l-0.062,0.13l-0.062,0.131l-0.062,0.131l-0.061,0.131l-0.06,0.13l-0.06,0.131l-0.059,0.13l-0.058,0.131l-0.058,0.13l-0.058,0.131l-0.057,0.13l-0.056,0.13l-0.056,0.131l-0.055,0.13l-0.054,0.13l-0.054,0.13l-0.053,0.13l-0.053,0.13l-0.052,0.13l-0.052,0.13l-0.05,0.129l-0.05,0.13l-0.05,0.13l-0.049,0.129l-0.048,0.13l-0.048,0.129l-0.046,0.13l-0.047,0.129l-0.045,0.129l-0.045,0.13l-0.044,0.129l-0.044,0.129l-0.043,0.129l-0.042,0.129l-0.041,0.129l-0.041,0.129l-0.04,0.129l-0.039,0.129l-0.039,0.128l-0.038,0.129l-0.037,0.129l-0.037,0.128l-0.037,0.135l-0.059,0.186l-0.072,0.181l-0.084,0.175l-0.096,0.17l-0.107,0.162l-0.119,0.154l-0.129,0.146l-0.139,0.136l-0.148,0.126l-0.156,0.116l-0.165,0.104l-0.171,0.093l-0.177,0.08l-0.182,0.068l-0.187,0.055l-0.19,0.042l-0.192,0.028l-0.194,0.015l-0.195,0.002l-0.194,-0.012l-0.193,-0.026l-0.191,-0.039l-0.187,-0.052l-0.183,-0.065l-0.179,-0.078l-0.172,-0.09l-0.166,-0.102l-0.158,-0.113l-0.15,-0.124l-0.141,-0.134l-0.131,-0.144l-0.121,-0.152l-0.11,-0.16l-0.099,-0.168l-0.087,-0.174l-0.074,-0.18l-0.061,-0.185l-0.049,-0.188l-0.035,-0.192l-0.022,-0.193l-0.008,-0.194l0.005,-0.195l0.019,-0.194l0.032,-0.191l0.046,-0.19l0.042,-0.149l0.044,-0.156l0.045,-0.155l0.046,-0.155l0.046,-0.155l0.047,-0.155l0.049,-0.154l0.048,-0.155l0.05,-0.154l0.05,-0.154l0.051,-0.153l0.052,-0.154l0.052,-0.153l0.053,-0.153l0.054,-0.153l0.055,-0.152l0.055,-0.153l0.056,-0.152l0.056,-0.151l0.057,-0.152l0.058,-0.151l0.059,-0.152l0.059,-0.151l0.059,-0.15l0.061,-0.151l0.061,-0.151l0.061,-0.15l0.062,-0.15l0.063,-0.149l0.063,-0.15l0.064,-0.149l0.064,-0.149l0.066,-0.15l0.065,-0.148l0.066,-0.149l0.067,-0.148l0.067,-0.148l0.068,-0.148l0.068,-0.148l0.069,-0.148l0.069,-0.147l0.07,-0.147l0.07,-0.147l0.071,-0.147l0.071,-0.147l0.072,-0.146l0.072,-0.147l0.073,-0.146l0.073,-0.146l0.073,-0.146l0.075,-0.145l0.074,-0.146l0.075,-0.145l0.075,-0.145l0.076,-0.145l0.076,-0.145l0.077,-0.144l0.076,-0.145l0.078,-0.144l0.077,-0.144l0.079,-0.144l0.078,-0.144l0.079,-0.143l0.08,-0.145l0.159,-0.285l0.161,-0.286l0.162,-0.285l0.163,-0.285l0.165,-0.284l0.166,-0.284l0.167,-0.282l0.168,-0.283l0.169,-0.281l0.17,-0.282l0.171,-0.28l0.172,-0.281l0.173,-0.279l0.174,-0.279l0.174,-0.279l0.175,-0.278l0.176,-0.278l0.177,-0.277l0.176,-0.277l0.178,-0.276l0.178,-0.276l0.178,-0.275l0.179,-0.275l0.179,-0.274l0.179,-0.274l0.18,-0.274l0.359,-0.546l0.361,-0.544l0.36,-0.542l0.36,-0.541l0.359,-0.54l0.358,-0.538l0.356,-0.536l0.355,-0.535l0.353,-0.534l0.175,-0.266l0.175,-0.266l0.174,-0.265l0.173,-0.265l0.172,-0.265l0.171,-0.265l0.171,-0.264l0.17,-0.263l0.168,-0.264l0.168,-0.263l0.166,-0.263l0.166,-0.262l0.164,-0.262l0.163,-0.261l0.161,-0.262l0.161,-0.261l0.159,-0.26l0.157,-0.26l0.156,-0.26l0.155,-0.26l0.153,-0.259l0.151,-0.259l0.15,-0.258l0.148,-0.258l0.147,-0.258l0.145,-0.257l0.143,-0.258l0.07,-0.127l0.071,-0.128l0.069,-0.129l0.07,-0.128l0.069,-0.127l0.068,-0.128l0.068,-0.128l0.067,-0.128l0.067,-0.127l0.067,-0.128l0.065,-0.127l0.066,-0.127l0.065,-0.127l0.064,-0.127l0.064,-0.127l0.063,-0.127l0.062,-0.126l0.063,-0.127l0.061,-0.127l0.061,-0.126l0.061,-0.126l0.06,-0.126l0.059,-0.127l0.059,-0.125l0.058,-0.126l0.057,-0.126l0.057,-0.126l0.057,-0.125l0.056,-0.126l0.055,-0.125l0.054,-0.125l0.054,-0.125l0.053,-0.125l0.053,-0.125l0.052,-0.124l0.052,-0.125l0.05,-0.125l0.051,-0.124l0.049,-0.124l0.049,-0.124l0.048,-0.124l0.048,-0.124l0.047,-0.124l0.046,-0.123l0.045,-0.124l0.045,-0.124l0.044,-0.123l0.044,-0.123l0.043,-0.123l0.044,-0.129l0.069,-0.182l0.082,-0.176l0.095,-0.17l0.105,-0.164l0.117,-0.155l0.128,-0.147l0.137,-0.138l0.147,-0.128l0.155,-0.117l0.163,-0.106l0.17,-0.095l0.176,-0.082l0.182,-0.07l0.186,-0.058l0.189,-0.044l0.192,-0.03l0.194,-0.018l0.195,-0.003l0.194,0.01Z" style="fill:#69cd23;"/></g><path d="M21.765,41.645l0.121,0.006l0.122,0.011l0.12,0.016l0.12,0.022l0.118,0.027l0.118,0.032l0.116,0.037l0.114,0.042l0.112,0.047l0.11,0.052l0.107,0.056l0.106,0.061l0.102,0.066l0.099,0.07l0.096,0.075l0.093,0.078l0.089,0.083l0.086,0.086l0.082,0.09l0.078,0.094l0.073,0.097l0.07,0.1l0.065,0.102l0.06,0.106l0.056,0.108l0.051,0.111l0.046,0.112l0.041,0.115l0.036,0.116l0.031,0.117l0.026,0.119l0.02,0.12l0.016,0.121l0.01,0.121l0.004,0.121l0,0.122l-0.006,0.121l-0.018,0.265l-0.01,0.139l-0.009,0.149l-0.01,0.156l-0.009,0.163l-0.01,0.169l-0.009,0.177l-0.009,0.182l-0.008,0.189l-0.008,0.194l-0.008,0.199l-0.007,0.204l-0.007,0.209l-0.005,0.213l-0.005,0.218l-0.004,0.221l-0.003,0.224l-0.001,0.227l-0.001,0.23l0.001,0.232l0.002,0.237l0.001,0.116l0.002,0.118l0.002,0.118l0.003,0.119l0.003,0.119l0.003,0.119l0.004,0.12l0.004,0.119l0.004,0.119l0.005,0.12l0.006,0.12l0.006,0.119l0.006,0.119l0.007,0.119l0.007,0.12l0.008,0.118l0.008,0.118l0.009,0.118l0.009,0.118l0.01,0.117l0.01,0.117l0.01,0.116l0.012,0.116l0.011,0.115l0.012,0.114l0.013,0.113l0.013,0.113l0.014,0.112l0.014,0.111l0.015,0.11l0.016,0.108l0.016,0.108l0.016,0.107l0.017,0.106l0.017,0.104l0.018,0.103l0.019,0.101l0.019,0.1l0.02,0.1l0.02,0.097l0.02,0.095l0.021,0.094l0.021,0.092l0.022,0.091l0.023,0.089l0.022,0.086l0.023,0.084l0.024,0.083l0.023,0.081l0.024,0.078l0.024,0.076l0.025,0.074l0.024,0.071l0.025,0.069l0.025,0.066l0.026,0.068l0.011,0.027l0.012,0.03l0.012,0.029l0.013,0.029l0.012,0.028l0.012,0.027l0.013,0.027l0.011,0.026l0.012,0.024l0.012,0.025l0.012,0.024l0.011,0.023l0.012,0.022l0.011,0.021l0.011,0.02l0.011,0.021l0.011,0.019l0.01,0.018l0.002,0.002l0.016,-0.01l0.019,-0.013l0.02,-0.014l0.021,-0.014l0.021,-0.015l0.022,-0.015l0.023,-0.017l0.022,-0.017l0.023,-0.018l0.024,-0.018l0.025,-0.02l0.024,-0.019l0.025,-0.021l0.026,-0.021l0.026,-0.022l0.026,-0.023l0.027,-0.023l0.027,-0.024l0.027,-0.024l0.028,-0.026l0.027,-0.025l0.029,-0.027l0.029,-0.027l0.028,-0.028l0.029,-0.029l0.029,-0.028l0.03,-0.03l0.03,-0.031l0.027,-0.027l0.063,-0.067l0.061,-0.066l0.062,-0.068l0.063,-0.07l0.063,-0.072l0.063,-0.075l0.063,-0.075l0.065,-0.079l0.064,-0.08l0.065,-0.082l0.064,-0.083l0.065,-0.086l0.065,-0.087l0.065,-0.088l0.065,-0.09l0.065,-0.091l0.065,-0.092l0.065,-0.094l0.065,-0.095l0.064,-0.096l0.064,-0.097l0.064,-0.098l0.064,-0.1l0.063,-0.1l0.063,-0.1l0.063,-0.102l0.062,-0.102l0.062,-0.103l0.062,-0.103l0.061,-0.104l0.06,-0.105l0.06,-0.104l0.06,-0.105l0.059,-0.105l0.058,-0.106l0.058,-0.106l0.057,-0.105l0.057,-0.106l0.056,-0.106l0.055,-0.105l0.054,-0.105l0.054,-0.106l0.054,-0.105l0.052,-0.104l0.051,-0.104l0.051,-0.104l0.05,-0.103l0.05,-0.102l0.048,-0.102l0.048,-0.101l0.046,-0.1l0.046,-0.1l0.045,-0.098l0.044,-0.098l0.043,-0.096l0.042,-0.096l0.041,-0.094l0.041,-0.093l0.039,-0.092l0.038,-0.09l0.037,-0.089l0.036,-0.087l0.035,-0.086l0.033,-0.084l0.033,-0.083l0.032,-0.08l0.03,-0.079l0.029,-0.077l0.028,-0.074l0.027,-0.072l0.025,-0.07l0.025,-0.068l0.023,-0.065l0.021,-0.063l0.02,-0.059l0.019,-0.057l0.017,-0.053l0.016,-0.05l0.015,-0.047l0.013,-0.043l0.011,-0.039l0.013,-0.048l0.036,-0.116l0.04,-0.115l0.046,-0.112l0.05,-0.111l0.055,-0.108l0.06,-0.106l0.064,-0.104l0.069,-0.1l0.073,-0.097l0.078,-0.094l0.081,-0.09l0.085,-0.087l0.089,-0.083l0.092,-0.079l0.096,-0.075l0.099,-0.071l0.102,-0.066l0.105,-0.062l0.107,-0.057l0.11,-0.053l0.112,-0.047l0.114,-0.043l0.115,-0.038l0.117,-0.032l0.119,-0.028l0.12,-0.022l0.12,-0.017l0.121,-0.012l0.121,-0.006l0.122,-0.001l0.122,0.004l0.121,0.009l0.121,0.015l0.12,0.02l0.119,0.025l0.117,0.03l0.117,0.036l0.114,0.04l0.113,0.046l0.111,0.05l0.108,0.055l0.106,0.06l0.103,0.064l0.101,0.069l0.097,0.073l0.094,0.078l0.09,0.081l0.087,0.085l0.083,0.089l0.079,0.092l0.075,0.096l0.071,0.099l0.066,0.102l0.062,0.105l0.057,0.107l0.052,0.11l0.048,0.112l0.043,0.114l0.037,0.115l0.033,0.117l0.028,0.119l0.022,0.119l0.017,0.121l0.012,0.121l0.006,0.121l0.001,0.122l-0.004,0.122l-0.009,0.121l-0.015,0.121l-0.02,0.119l-0.025,0.119l-0.031,0.118l-0.02,0.072l-0.025,0.086l-0.026,0.087l-0.027,0.087l-0.028,0.089l-0.029,0.089l-0.03,0.091l-0.031,0.092l-0.032,0.093l-0.033,0.094l-0.035,0.096l-0.035,0.097l-0.037,0.099l-0.037,0.1l-0.039,0.101l-0.039,0.103l-0.041,0.104l-0.042,0.105l-0.043,0.107l-0.044,0.108l-0.045,0.109l-0.046,0.111l-0.047,0.111l-0.048,0.113l-0.049,0.114l-0.051,0.115l-0.051,0.116l-0.052,0.117l-0.053,0.119l-0.055,0.119l-0.055,0.119l-0.056,0.121l-0.057,0.122l-0.059,0.123l-0.059,0.123l-0.06,0.124l-0.061,0.124l-0.062,0.126l-0.063,0.125l-0.065,0.127l-0.064,0.127l-0.066,0.127l-0.067,0.128l-0.068,0.128l-0.069,0.128l-0.069,0.129l-0.071,0.129l-0.072,0.129l-0.072,0.129l-0.073,0.129l-0.075,0.13l-0.075,0.13l-0.076,0.129l-0.077,0.13l-0.078,0.129l-0.078,0.129l-0.08,0.129l-0.081,0.129l-0.081,0.129l-0.083,0.128l-0.083,0.128l-0.084,0.127l-0.086,0.128l-0.086,0.126l-0.087,0.126l-0.088,0.126l-0.089,0.125l-0.09,0.125l-0.091,0.123l-0.093,0.123l-0.093,0.123l-0.094,0.122l-0.096,0.121l-0.096,0.12l-0.097,0.119l-0.099,0.118l-0.101,0.118l-0.101,0.116l-0.102,0.115l-0.104,0.114l-0.105,0.114l-0.104,0.108l-0.057,0.059l-0.054,0.055l-0.055,0.055l-0.055,0.055l-0.055,0.054l-0.057,0.054l-0.055,0.054l-0.057,0.053l-0.058,0.053l-0.057,0.053l-0.058,0.052l-0.059,0.052l-0.059,0.051l-0.059,0.052l-0.061,0.051l-0.06,0.05l-0.061,0.05l-0.062,0.049l-0.062,0.049l-0.062,0.049l-0.064,0.048l-0.064,0.048l-0.064,0.047l-0.066,0.047l-0.065,0.047l-0.067,0.045l-0.067,0.046l-0.068,0.044l-0.068,0.044l-0.07,0.045l-0.07,0.043l-0.07,0.042l-0.072,0.041l-0.071,0.041l-0.074,0.041l-0.074,0.04l-0.075,0.039l-0.075,0.038l-0.076,0.037l-0.078,0.037l-0.078,0.036l-0.079,0.034l-0.08,0.034l-0.08,0.033l-0.083,0.033l-0.083,0.031l-0.082,0.029l-0.085,0.029l-0.087,0.028l-0.086,0.027l-0.086,0.025l-0.089,0.024l-0.089,0.023l-0.09,0.021l-0.092,0.02l-0.091,0.018l-0.092,0.017l-0.094,0.016l-0.094,0.013l-0.095,0.013l-0.097,0.01l-0.097,0.009l-0.096,0.007l-0.097,0.005l-0.099,0.003l-0.099,0.001l-0.099,0l-0.099,-0.003l-0.1,-0.005l-0.1,-0.006l-0.1,-0.009l-0.099,-0.01l-0.102,-0.013l-0.1,-0.015l-0.1,-0.017l-0.101,-0.019l-0.1,-0.021l-0.099,-0.023l-0.098,-0.025l-0.1,-0.028l-0.099,-0.029l-0.097,-0.031l-0.096,-0.033l-0.097,-0.035l-0.096,-0.038l-0.093,-0.038l-0.095,-0.041l-0.093,-0.043l-0.092,-0.044l-0.091,-0.046l-0.089,-0.047l-0.091,-0.05l-0.078,-0.045l-0.076,-0.046l-0.077,-0.048l-0.074,-0.048l-0.074,-0.05l-0.072,-0.05l-0.071,-0.052l-0.071,-0.053l-0.068,-0.052l-0.067,-0.054l-0.066,-0.056l-0.066,-0.056l-0.063,-0.056l-0.062,-0.056l-0.062,-0.058l-0.06,-0.058l-0.059,-0.059l-0.057,-0.059l-0.057,-0.06l-0.055,-0.06l-0.055,-0.061l-0.053,-0.06l-0.051,-0.061l-0.052,-0.062l-0.05,-0.063l-0.049,-0.062l-0.048,-0.062l-0.047,-0.063l-0.046,-0.064l-0.045,-0.063l-0.044,-0.064l-0.044,-0.064l-0.042,-0.063l-0.042,-0.065l-0.04,-0.064l-0.04,-0.065l-0.039,-0.065l-0.038,-0.065l-0.038,-0.065l-0.037,-0.066l-0.036,-0.065l-0.035,-0.065l-0.035,-0.067l-0.034,-0.065l-0.034,-0.066l-0.032,-0.067l-0.032,-0.065l-0.032,-0.067l-0.031,-0.067l-0.03,-0.066l-0.029,-0.067l-0.03,-0.067l-0.028,-0.066l-0.028,-0.068l-0.028,-0.067l-0.028,-0.072l-0.051,-0.13l-0.051,-0.135l-0.049,-0.136l-0.047,-0.136l-0.045,-0.137l-0.043,-0.137l-0.042,-0.137l-0.041,-0.138l-0.039,-0.138l-0.038,-0.138l-0.036,-0.139l-0.035,-0.139l-0.034,-0.14l-0.032,-0.14l-0.031,-0.14l-0.03,-0.14l-0.029,-0.141l-0.028,-0.141l-0.027,-0.141l-0.026,-0.142l-0.025,-0.141l-0.023,-0.143l-0.023,-0.142l-0.022,-0.142l-0.021,-0.142l-0.02,-0.143l-0.02,-0.143l-0.018,-0.143l-0.018,-0.142l-0.016,-0.143l-0.016,-0.143l-0.016,-0.143l-0.014,-0.143l-0.014,-0.143l-0.013,-0.142l-0.013,-0.143l-0.011,-0.142l-0.011,-0.143l-0.011,-0.142l-0.01,-0.142l-0.009,-0.142l-0.008,-0.141l-0.009,-0.141l-0.007,-0.141l-0.007,-0.14l-0.006,-0.14l-0.006,-0.139l-0.005,-0.139l-0.005,-0.139l-0.005,-0.138l-0.003,-0.137l-0.004,-0.137l-0.003,-0.136l-0.002,-0.136l-0.002,-0.135l-0.002,-0.136l-0.002,-0.264l-0.001,-0.263l0.001,-0.259l0.002,-0.255l0.003,-0.251l0.004,-0.247l0.005,-0.242l0.007,-0.237l0.007,-0.232l0.008,-0.226l0.008,-0.22l0.009,-0.215l0.01,-0.207l0.009,-0.202l0.011,-0.194l0.01,-0.186l0.01,-0.179l0.011,-0.171l0.01,-0.163l0.011,-0.156l0.019,-0.274l0.011,-0.121l0.016,-0.12l0.022,-0.12l0.027,-0.119l0.032,-0.117l0.037,-0.116l0.042,-0.114l0.047,-0.112l0.052,-0.11l0.056,-0.108l0.061,-0.105l0.066,-0.102l0.07,-0.099l0.075,-0.097l0.078,-0.092l0.083,-0.09l0.086,-0.085l0.09,-0.082l0.094,-0.078l0.097,-0.074l0.1,-0.069l0.102,-0.065l0.106,-0.06l0.108,-0.056l0.111,-0.051l0.112,-0.046l0.115,-0.041l0.116,-0.036l0.117,-0.031l0.119,-0.026l0.12,-0.02l0.121,-0.016l0.121,-0.01l0.121,-0.005l0.122,0.001Z" style="fill:#69cd23;"/></svg>